<svg xmlns="http://www.w3.org/2000/svg" width="143.156" height="115" viewBox="0 0 143.156 115">
    <defs>
        <style>.a{fill:#6c63ff;}.b{fill:#f2f2f2;}.c{fill:none;stroke:#3f3d56;stroke-miterlimit:10;}.d{fill:#57b894;}.e{fill:#a0616a;}.f{opacity:0.1;}.g{fill:#3f3d56;}</style>
    </defs>
    <g transform="translate(0 0.271)">
        <rect class="a" width="30.123" height="24.455" transform="translate(7.383 16.209)" />
        <rect class="b" width="83.404" height="2.591" transform="translate(7.383 48.113)" />
        <rect class="c" width="30.123" height="24.455" transform="translate(5.278 14.752)" />
        <rect class="b" width="29.151" height="2.591" transform="translate(49.49 22.93)" />
        <rect class="b" width="41.297" height="2.591" transform="translate(49.49 29.894)" />
        <rect class="c" width="29.151" height="2.591" transform="translate(47.385 21.473)" />
        <rect class="c" width="41.297" height="2.591" transform="translate(47.385 28.436)" />
        <rect class="c" width="83.404" height="2.591" transform="translate(5.278 46.656)" />
        <rect class="b" width="83.404" height="2.591" transform="translate(7.383 56.211)" />
        <rect class="c" width="83.404" height="2.591" transform="translate(5.278 54.753)" />
        <rect class="b" width="83.404" height="2.591" transform="translate(7.383 64.308)" />
        <rect class="c" width="83.404" height="2.591" transform="translate(5.278 62.851)" />
        <rect class="b" width="83.404" height="2.591" transform="translate(7.383 72.406)" />
        <rect class="c" width="83.404" height="2.591" transform="translate(5.278 70.948)" />
        <rect class="b" width="83.404" height="2.591" transform="translate(7.383 80.504)" />
        <rect class="c" width="83.404" height="2.591" transform="translate(5.278 79.046)" />
        <rect class="b" width="83.404" height="2.591" transform="translate(7.383 88.601)" />
        <rect class="c" width="83.404" height="2.591" transform="translate(5.278 87.143)" />
        <rect class="c" width="95" height="105" transform="translate(0.5 0.229)" />
        <path class="d" d="M961.106,644.733a3.3,3.3,0,1,0,.44-6.331l.083,1.7-.8-1.456a3.288,3.288,0,0,0-1.694,1.859,3.238,3.238,0,0,0-.19.893A3.3,3.3,0,0,0,961.106,644.733Z" transform="translate(-829.206 -550.586)" />
        <path class="c" d="M993.7,649.757c-.284-1.445.946-2.726,2.16-3.558s2.634-1.651,3.048-3.064c.6-2.031-1.178-3.89-2.559-5.494a19.873,19.873,0,0,1-2.621-3.895,5.359,5.359,0,0,1-.627-1.771,6.113,6.113,0,0,1,.472-2.654q1.456-4.29,3.113-8.509" transform="translate(-857.822 -535.904)" />
        <path class="c" d="M961.946,642.032a3.3,3.3,0,1,0,.44-6.331l.083,1.7-.8-1.456a3.289,3.289,0,0,0-1.694,1.859,3.237,3.237,0,0,0-.19.893A3.3,3.3,0,0,0,961.946,642.032Z" transform="translate(-829.91 -548.322)" />
        <path class="d" d="M993.4,605.937a3.3,3.3,0,0,1,2.376-2.093l.272,1.615.5-1.7a3.3,3.3,0,1,1-3.151,2.174Z" transform="translate(-857.926 -521.617)" />
        <path class="c" d="M994.519,602.336a3.3,3.3,0,0,1,2.376-2.093l.272,1.615.5-1.7a3.3,3.3,0,1,1-3.151,2.174Z" transform="translate(-858.864 -518.598)" />
        <path class="d" d="M998.436,691.789a3.3,3.3,0,0,0,2.921-5.872l-.387,1.3-.275-1.634-.008,0a3.3,3.3,0,1,0-2.251,6.206Z" transform="translate(-860.489 -590.02)" />
        <path class="c" d="M999.406,688.142a3.3,3.3,0,0,0,2.921-5.872l-.387,1.3-.275-1.634-.008,0a3.3,3.3,0,1,0-2.251,6.206Z" transform="translate(-861.302 -586.963)" />
        <path class="d" d="M988.215,738.75a3.3,3.3,0,1,0,.636-2.585l1.471,2.214-2.009-1.175A3.269,3.269,0,0,0,988.215,738.75Z" transform="translate(-853.705 -631.499)" />
        <path class="c" d="M989.054,736.049a3.3,3.3,0,1,0,.636-2.585l1.471,2.214-2.009-1.175A3.27,3.27,0,0,0,989.054,736.049Z" transform="translate(-854.408 -629.236)" />
        <path class="e" d="M748.5,325.987s2.024,4.292,1.7,5.587a3.547,3.547,0,0,0,.243,2.348l3.725-.162,3.482-3.32s-5.263-3.644-4.94-5.425S748.5,325.987,748.5,325.987Z" transform="translate(-652.854 -287.51)" />
        <path class="a" d="M798.958,376.12l1.62,10.041s0,9.069-.486,9.231a13.577,13.577,0,0,1-2.591,0v-10.2l.648-8.907Z" transform="translate(-693.919 -330.841)" />
        <path class="f" d="M798.958,376.12l1.62,10.041s0,9.069-.486,9.231a13.577,13.577,0,0,1-2.591,0v-10.2l.648-8.907Z" transform="translate(-693.919 -330.841)" />
        <path class="e" d="M706,624.239l1.3,5.02,1.943-1.458,1.781-4.049L708.753,621Z" transform="translate(-591.244 -520.01)" />
        <path class="g" d="M863.033,733.12s-2.105,1.62-2.105,3.239c0,0-1.134,1.781-2.429,1.62v3.4s-4.049,2.105-.972,2.591,5.344-3.4,5.344-3.4,2.915-4.7,2.429-5.344A21.342,21.342,0,0,0,863.033,733.12Z" transform="translate(-743.257 -630.025)" />
        <path class="g" d="M783.861,490.164a9.3,9.3,0,0,1,1.632,8.539s-1.62,11.66,3.563,16.033,8.583,13.928,8.583,13.928l-3.887,3.563s-4.211-9.555-8.583-13.28a13.532,13.532,0,0,1-4.859-7.936V496.274l-.81-6.154Z" transform="translate(-678.834 -426.379)" />
        <path class="f" d="M783.861,490.164a9.3,9.3,0,0,1,1.632,8.539s-1.62,11.66,3.563,16.033,8.583,13.928,8.583,13.928l-3.887,3.563s-4.211-9.555-8.583-13.28a13.532,13.532,0,0,1-4.859-7.936V496.274l-.81-6.154Z" transform="translate(-678.834 -426.379)" />
        <path class="e" d="M612.62,664,611,665.781l.648,1.458,1.943.648,3.4-1.3-.486-1.943Z" transform="translate(-511.629 -556.046)" />
        <path class="g" d="M740,770.417s-3.887,1.943-4.859,1.134a2.6,2.6,0,0,1-.969-1.849,9.282,9.282,0,0,0-3.242,1.039c-1.3.81-2.267,1.781-3.887,1.781s-.972,1.943,2.105,2.105S740,774.466,740,773.656Z" transform="translate(-634.155 -660.682)" />
        <path class="g" d="M740.433,498.092a40.276,40.276,0,0,0,1.62,20.082s1.781,5.992,2.591,7.774,1.62,14.414,1.3,14.9c0,0,2.591,2.105,4.859.648,0,0-.162-7.45.162-8.1s.648-6.316-1.3-11.013-.324-16.033-.324-16.033,3.887-5.83.972-9.231Z" transform="translate(-645.596 -432.245)" />
        <circle class="e" cx="4.535" cy="4.535" r="4.535" transform="translate(92.731 30.542)" />
        <path class="a" d="M740.2,371.251s-1.3,1.943-2.267.972c-.685-.685-5.071.8-7.6,1.741-1.059.392-1.793.688-1.793.688s-.07-2.245-.275-5.087a54.445,54.445,0,0,0-1.344-9.651c-1.3-4.373,1.943-6.154,1.943-6.154s2.753-3.239,2.591-3.725,7.288-2.915,7.288-2.915c.81.162,1.458,7.45,1.458,7.45s-1.458,5.83-2.267,9.393S740.2,371.251,740.2,371.251Z" transform="translate(-634.51 -306.537)" />
        <path class="e" d="M686.477,497.12a38.064,38.064,0,0,1-5.344,4.535c-1.781.972-2.753,4.211-1.3,4.859s4.7-3.563,4.7-3.563l4.7-3.887Z" transform="translate(-594.718 -432.245)" />
        <path class="g" d="M725.787,274.128a.722.722,0,0,0-.517.952,1.4,1.4,0,0,0,.91.789c.392.138.812.185,1.2.321a3.545,3.545,0,0,1,1.071.622,5.944,5.944,0,0,1,1.993,3.745,10.256,10.256,0,0,1-.4,4.289,2.489,2.489,0,0,1-1.275,1.806,14.332,14.332,0,0,0,2.3-.78c.545-.257,1.056-.581,1.606-.825a10.073,10.073,0,0,1,2.543-.667,3.5,3.5,0,0,1,1.837.063,3.691,3.691,0,0,1,.963.649l1.852,1.556q.048-1.015.064-2.031a4.518,4.518,0,0,0-.21-1.742,15.935,15.935,0,0,0-.893-1.495c-.673-1.271-.454-2.8-.441-4.24a9.161,9.161,0,0,0-.916-4.327,5.515,5.515,0,0,0-3.3-2.82c-1.935-.533-3.975.26-5.754,1.19a5.217,5.217,0,0,0-1.16.755,5.638,5.638,0,0,0-.943,1.286l-.881,1.476" transform="translate(-633.354 -241.76)" />
        <path class="f" d="M746.954,372.112s-3.077,11.66-3.4,12.47a39.189,39.189,0,0,1-4.685,5.3c-1.059.392-1.793.688-1.793.688s-.07-2.245-.275-5.087c1.318-1.462,2.7-2.849,2.7-2.849s1.458-8.907,1.3-12.308,3.239-4.211,3.239-4.211C747.926,366.606,746.954,372.112,746.954,372.112Z" transform="translate(-643.049 -322.46)" />
        <path class="a" d="M728.9,362.12s-3.4.81-3.239,4.211-1.3,12.308-1.3,12.308-5.506,5.506-5.02,6.154a11.565,11.565,0,0,0,3.065,2.094c.5.173,5.68-5.5,6-6.305s3.4-12.47,3.4-12.47S732.785,362.606,728.9,362.12Z" transform="translate(-628.394 -319.108)" />
        <line class="c" x2="60" transform="translate(82.5 114.229)" />
    </g>
</svg>