<svg xmlns="http://www.w3.org/2000/svg" width="21.709" height="13.843" viewBox="0 0 21.709 13.843">
    <defs>
        <style>.a{fill:#fff;}</style>
    </defs>
    <path class="a" d="M25.846,18.388l-3.37-4.031a.727.727,0,0,0-.56-.278.714.714,0,0,0-.56.278,1.09,1.09,0,0,0,0,1.343l.006.007,2.324,2.722H8.91a2.6,2.6,0,0,1-2-1,3.73,3.73,0,0,1-.832-2.4V11.778a.884.884,0,0,0-.791-.95.884.884,0,0,0-.791.95v3.257a5.819,5.819,0,0,0,1.295,3.739A4.041,4.041,0,0,0,8.91,20.328h14.8l-2.245,2.728a1.047,1.047,0,0,0-.232.672,1.029,1.029,0,0,0,.232.672l.006.007a.75.75,0,0,0,.554.264.7.7,0,0,0,.56-.278l3.257-3.9a1.664,1.664,0,0,0,.368-1.066,1.575,1.575,0,0,0-.362-1.045Z" transform="translate(-4.5 -10.828)" />
</svg>