<svg xmlns="http://www.w3.org/2000/svg" width="238.537" height="173.932" viewBox="0 0 238.537 173.932">
    <defs>
        <style>.a{fill:#e6e6e6;}.b{fill:#fff;}.c{fill:#6c63ff;}.d{fill:#3f3d56;}.e{opacity:0.1;}.e,.f{isolation:isolate;}.f{opacity:0.05;}.g{fill:#ffb8b8;}.h{fill:#2f2e41;}.i{fill:#575a89;}</style>
    </defs>
    <rect class="a" width="175.36" height="112.308" transform="translate(0.075 0.099)" />
    <rect class="b" width="165.331" height="91.578" transform="translate(5.089 14.186)" />
    <rect class="c" width="175.36" height="7.45" />
    <circle class="b" cx="1.381" cy="1.381" r="1.381" transform="translate(4.155 2.428)" />
    <circle class="b" cx="1.381" cy="1.381" r="1.381" transform="translate(9.397 2.428)" />
    <circle class="b" cx="1.381" cy="1.381" r="1.381" transform="translate(14.638 2.428)" />
    <rect class="a" width="32.336" height="35.082" transform="translate(25.431 21.718)" />
    <rect class="a" width="32.336" height="35.082" transform="translate(71.586 21.718)" />
    <rect class="a" width="32.336" height="35.082" transform="translate(117.741 21.718)" />
    <rect class="a" width="32.336" height="35.082" transform="translate(25.431 63.15)" />
    <rect class="a" width="32.336" height="35.082" transform="translate(71.586 63.15)" />
    <rect class="a" width="32.336" height="35.082" transform="translate(117.741 63.15)" />
    <path class="b" d="M444.589,389.336,450.5,387l.687,11.679s1.237,3.572.824,4.946c0,0,.275,2.336-.412,2.473a11.385,11.385,0,0,1-2.748.275c-.137-.137-.137-.55-.137-.55a3.831,3.831,0,0,0-1.511,2.061s-5.771,1.786-5.908.137S444.177,405,444.177,405l2.336-3.572Z" transform="translate(-365.187 -317.17)" />
    <path class="b" d="M490.559,389.336,496.467,387l.687,11.679s1.237,3.572.824,4.946c0,0,.275,2.336-.412,2.473a11.386,11.386,0,0,1-2.748.275c-.137-.137-.137-.55-.137-.55a3.831,3.831,0,0,0-1.511,2.061s-5.771,1.786-5.908.137S490.147,405,490.147,405l2.336-3.572Z" transform="translate(-398.654 -317.17)" />
    <path class="d" d="M470.078,228.517s-1.258,3.515.2,5.1l-1.215,4.176s4.318,12.953,3.084,14.762c0,0-4.605,2.3-13.816-.822l3.742-14.515-.535-6.127.74-2.878,1.645-.164s-.987,3.7.822,4.276,3.574-4.184,3.574-4.184Z" transform="translate(-377.595 -201.451)" />
    <path class="b" d="M287.921,250.624l1.588.649,7.577-9.958,2.381,11.69,1.588-.289c1.018-10.079,1.849-20.359.83-25.221L296,227.244l-2.67,8.515-1.3,5.773Z" transform="translate(-253.536 -200.866)" />
    <path class="b" d="M636.652,227.875s-2.167,3.012-2.061,4.228,1.48,21.032,1.48,21.032l3.223.159-.951-14.268.793-3.858,1.955,17.967,3.963.106-3.541-23.3-.687-2.061Z" transform="translate(-505.911 -201.325)" />
    <path class="d" d="M632.969,399.039a4.475,4.475,0,0,0-2.514-1.265,13.513,13.513,0,0,0-2.937-.565l-1.1-.876-3.377,1.754-1.9-1.292-.882.313a16.884,16.884,0,0,0-2.737.325c-.53.019-1.206.052-1.963.11-2.652.2-2.856,7.071-2.856,7.071a10.839,10.839,0,0,1,3.839-.8l.717,8.215a38,38,0,0,1,11.559.952l1.879-6.457,4.376-1.7S634.329,400.671,632.969,399.039Z" transform="translate(-489.983 -323.965)" />
    <path class="b" d="M297.257,385.935a3.687,3.687,0,0,0-2.071-1.043,11.136,11.136,0,0,0-2.42-.465l-.906-.721-2.782,1.445-1.564-1.064-.726.258a13.913,13.913,0,0,0-2.255.267c-.436.016-.994.043-1.618.091-2.185.168-2.353,5.826-2.353,5.826a8.931,8.931,0,0,1,3.163-.662l.591,16.568a31.311,31.311,0,0,1,9.524.784l1.548-15.12,3.606-1.4S298.377,387.279,297.257,385.935Z" transform="translate(-248.178 -314.771)" />
    <path class="a" d="M501.666,543.422,479.792,547.9l-.5-.051-19.223-1.94v-24.36l23.532-3.978,17.07,1.991.006.108v.051Z" transform="translate(-334.935 -376.794)" />
    <path class="e" d="M553.118,549.039l-21.874,4.477-.5-.051V528.492l21.385-3.207Z" transform="translate(-386.387 -382.412)" />
    <path class="f" d="M500.679,519.719l-.006.006-21.379,3.15-19.223-1.327,23.532-3.978,17.07,1.991.006.108Z" transform="translate(-334.935 -376.794)" />
    <rect class="b" width="13.328" height="6.256" transform="matrix(0.998, 0.065, -0.065, 0.998, 127.782, 153.256)" />
    <rect class="c" width="7.072" height="2.176" transform="matrix(0.998, 0.065, -0.065, 0.998, 130.77, 155.495)" />
    <path class="c" d="M610.666,543.422,588.792,547.9l-.5-.051-19.223-1.94v-24.36l23.532-3.978,17.07,1.991.006.108v.051Z" transform="translate(-414.288 -376.794)" />
    <path class="e" d="M662.118,549.039l-21.874,4.477-.5-.051V528.492l21.385-3.207Z" transform="translate(-465.74 -382.412)" />
    <path class="f" d="M609.679,519.719l-.006.006-21.379,3.15-19.223-1.327,23.532-3.978,17.07,1.991.006.108Z" transform="translate(-414.288 -376.794)" />
    <rect class="b" width="13.328" height="6.256" transform="matrix(0.998, 0.065, -0.065, 0.998, 157.429, 153.256)" />
    <rect class="c" width="7.072" height="2.176" transform="matrix(0.998, 0.065, -0.065, 0.998, 160.417, 155.495)" />
    <path class="g" d="M928.758,295.884s3.859,9.97-3.216,9.97,10.935,9.97,18.011,4.181,2.895-6.111,2.895-6.111-9.327.965-9.005-7.4Z" transform="translate(-716.551 -250.836)" />
    <circle class="h" cx="11.375" cy="11.375" r="11.375" transform="translate(205.86 25.299)" />
    <path class="h" d="M890.225,448.422,878,479.941s-6.111,9.649-3.859,19.3,8.438,27.209,8.438,27.209,4.673,1.189,4.352-2.992.2-24.452-4.624-29.919L901.8,471.257l.643,25.408s-1.286,11.578-.965,16.724.965,13.83.965,13.83l3.859-.643s5.206-23.689,4.563-31.408c0,0,11.95-37.505-.272-46.511Z" transform="translate(-679.948 -361.885)" />
    <path class="h" d="M902.452,725.991s-1.574-.4-1.755,1.043-3.491,7.861-.036,8.183,4.651-2.912,5.23-5.185.8-2.4,1.281-2.839,1.634-2.821.19-3a3.194,3.194,0,0,1-2.183-1.6S904.725,726.57,902.452,725.991Z" transform="translate(-698.475 -561.482)" />
    <path class="h" d="M981.15,730.479s-2.918-.417-2.71.625-.417,5.42,0,5.837,1.251,1.251,1.251,1.876.208,2.71,3.752,2.085a2.956,2.956,0,0,0,2.5-4.169c-.208-.417-2.71-2.5-2.5-3.752S982.4,729.645,981.15,730.479Z" transform="translate(-756.133 -567.086)" />
    <circle class="g" cx="7.879" cy="7.879" r="7.879" transform="translate(209.496 33.539)" />
    <path class="i" d="M929.474,321.722s2.748,5.437-5.535,5.591a8.507,8.507,0,0,1-6.825-4.027c-.736-1.307-.923.5-2.113.366-2.255-.251-4.665.685-6.82,1.831a1.36,1.36,0,0,0-.664,1.6c1.635,5.425,6.3,31.519,7.025,32.939,1.84,3.628,21.759-2.448,21.759-2.448.273-9.872-3.31-23.683,2.992-33.727A12,12,0,0,0,929.474,321.722Z" transform="translate(-704.564 -269.438)" />
    <path class="h" d="M785.083,121.909l-5.773-3.023-7.971,1.237-1.649,7.284,4.105-.158,1.147-2.676V127.2l1.894-.073,1.1-4.26.687,4.535,6.734-.138Z" transform="translate(-560.341 -86.55)" />
    <circle class="h" cx="4.59" cy="4.59" r="4.59" transform="translate(213.243 19.113)" />
    <path class="h" d="M937.375,199.988a4.591,4.591,0,0,1,3.891-4.537,4.59,4.59,0,1,0,0,9.074,4.591,4.591,0,0,1-3.891-4.537Z" transform="translate(-725.329 -177.682)" />
    <path class="a" d="M765.666,414.422,743.792,418.9l-.5-.051-19.223-1.94v-24.36l23.532-3.978,17.07,1.991.006.108v.051Z" transform="translate(-527.13 -282.881)" />
    <path class="e" d="M817.118,420.039l-21.874,4.477-.5-.051V399.492l21.385-3.207Z" transform="translate(-578.581 -288.499)" />
    <path class="f" d="M764.679,390.719l-.006.006-21.379,3.15-19.223-1.327,23.532-3.978,17.07,1.991.006.108Z" transform="translate(-527.13 -282.881)" />
    <rect class="b" width="13.328" height="6.256" transform="matrix(0.998, 0.065, -0.065, 0.998, 199.588, 118.169)" />
    <rect class="c" width="7.072" height="2.176" transform="matrix(0.998, 0.065, -0.065, 0.998, 202.576, 120.408)" />
    <path class="g" d="M898.762,510.457s-8.041,6.432-4.5,8.684,7.719-8.684,7.719-8.684Z" transform="translate(-694.3 -407.047)" />
    <path class="i" d="M901.185,335.144c-.416-.469-5.676,2.213-4.9,5.712l.367,24.244s-1.93,19.94,2.895,19.94,4.255.671,4.9-.938.816-15.232.816-15.232Z" transform="translate(-696.375 -279.379)" />
    <path class="g" d="M1005.954,502.457s4.181,10.935,7.719,8.684-4.5-8.684-4.5-8.684Z" transform="translate(-776.27 -401.223)" />
    <path class="i" d="M1002.22,361.143s-2,13.351-1.36,14.96.074.938,4.9.938,2.895-19.94,2.895-19.94l.367-24.244c.78-3.5-4.479-6.181-4.9-5.712L999.5,342.92Z" transform="translate(-771.571 -273.555)" />
</svg>