<svg xmlns="http://www.w3.org/2000/svg" width="186.749" height="145.343" viewBox="0 0 186.749 145.343">
    <defs>
        <style>.a{fill:#3f3d56;}.b{fill:#d0cde1;}.c{fill:#2f2e41;}.d{fill:#a0616a;}.e{opacity:0.15;}.f{opacity:0.1;}.g{fill:#6c63ff;}</style>
    </defs>
    <path class="a" d="M964.433,671.578c-.014-.06-1.33-6.062,1.358-11.047s8.426-7.183,8.483-7.2l.262-.1.062.273c.014.06,1.33,6.062-1.358,11.047s-8.426,7.183-8.483,7.2l-.262.1Zm9.744-17.683c-1.149.494-5.685,2.658-7.956,6.868s-1.585,9.19-1.367,10.421c1.149-.493,5.683-2.654,7.956-6.868S974.4,655.127,974.177,653.9Z" transform="translate(-799.896 -536.41)" />
    <path class="b" d="M972.705,691.668c-4.83,2.906-6.691,8.679-6.691,8.679s5.971,1.061,10.8-1.845,6.691-8.679,6.691-8.679S977.536,688.761,972.705,691.668Z" transform="translate(-801.416 -565.278)" />
    <path class="a" d="M282.87,197.9c-.574,0-1.155-.009-1.724-.027l.013-.414c.818.025,1.652.033,2.474.021l.006.414Q283.255,197.9,282.87,197.9Zm3.26-.1-.024-.413c.819-.048,1.649-.116,2.466-.2l.043.412C287.791,197.686,286.955,197.754,286.13,197.8Zm-7.473-.064c-.826-.063-1.661-.146-2.481-.247l.051-.411c.814.1,1.642.182,2.462.245Zm12.43-.455-.062-.409c.814-.124,1.634-.267,2.437-.426l.081.406C292.733,197.014,291.907,197.159,291.087,197.283Zm-17.378-.151c-.816-.138-1.64-.3-2.448-.473l.088-.4c.8.174,1.619.332,2.429.469Zm22.267-.82-.1-.4c.8-.2,1.6-.416,2.388-.649l.118.4C297.59,195.892,296.781,196.112,295.976,196.311Zm-27.138-.237c-.8-.213-1.606-.447-2.394-.7l.125-.395c.782.247,1.581.48,2.375.691Zm31.917-1.18-.136-.391c.775-.27,1.555-.561,2.318-.866l.154.385C302.321,194.328,301.536,194.622,300.755,194.894Zm-36.676-.324c-.777-.286-1.559-.594-2.325-.916l.161-.382c.759.32,1.535.626,2.307.909Zm41.3-1.525-.171-.377c.744-.338,1.493-.7,2.224-1.073l.188.369C306.882,192.339,306.128,192.7,305.378,193.044Zm4.43-2.265-.205-.359c.714-.407,1.427-.836,2.118-1.273l.221.35C311.245,189.937,310.527,190.369,309.808,190.779Zm4.208-2.662-.237-.339c.672-.47,1.343-.962,1.994-1.462l.252.328C315.369,187.148,314.693,187.644,314.016,188.117Zm-63.111-.583c-.668-.485-1.336-.994-1.984-1.512l.258-.323c.644.514,1.306,1.018,1.969,1.5Zm67.061-2.453-.267-.317c.627-.529,1.25-1.08,1.854-1.638l.281.3C319.225,183.993,318.6,184.549,317.965,185.081Zm-70.958-.66c-.622-.545-1.241-1.112-1.838-1.685l.287-.3c.593.569,1.206,1.132,1.824,1.673Zm74.617-2.725-.295-.291c.578-.585,1.149-1.191,1.7-1.8l.308.277c-.553.614-1.129,1.224-1.711,1.814Zm-78.214-.727c-.571-.6-1.135-1.221-1.676-1.845l.313-.271c.537.619,1.1,1.235,1.664,1.831Zm81.551-2.977-.32-.263c.522-.635,1.036-1.29,1.528-1.948l.332.248C326.005,176.693,325.488,177.353,324.962,177.993Zm-84.818-.786c-.513-.648-1.018-1.317-1.5-1.988l.336-.242c.479.666.981,1.33,1.49,1.974ZM327.949,174l-.343-.233c.462-.68.914-1.38,1.344-2.08l.353.217C328.87,172.608,328.414,173.313,327.949,174Zm-90.714-.834c-.451-.692-.893-1.4-1.313-2.116l.357-.21c.417.707.855,1.413,1.3,2.1Zm93.326-3.418-.362-.2c.4-.719.784-1.458,1.148-2.2l.371.184C331.351,168.276,330.961,169.021,330.561,169.746Zm2.211-4.476-.379-.166c.33-.754.647-1.525.942-2.294l.387.148C333.424,163.732,333.1,164.51,332.772,165.269Zm-100.187-.893c-.317-.762-.621-1.541-.9-2.317l.389-.142c.28.77.581,1.543.9,2.3ZM334.563,160.6l-.393-.13c.258-.779.5-1.574.725-2.366l.4.112C335.069,159.018,334.823,159.82,334.563,160.6ZM230.884,159.7c-.246-.789-.478-1.6-.688-2.4l.4-.105c.209.795.438,1.6.683,2.378Zm105.028-3.891-.4-.094c.185-.8.355-1.613.5-2.422l.407.075C336.27,154.18,336.1,155,335.912,155.806Zm-106.293-.93c-.173-.809-.329-1.633-.464-2.449l.408-.068c.135.811.29,1.628.461,2.431ZM336.815,150.9l-.41-.056c.111-.811.205-1.638.28-2.458l.412.037C337.022,149.253,336.927,150.086,336.815,150.9ZM228.8,149.958c-.1-.82-.178-1.654-.238-2.481l.413-.03c.06.821.14,1.649.237,2.463Zm108.461-4.018-.414-.019c.037-.82.056-1.653.056-2.473h.414C337.321,144.275,337.3,145.113,337.265,145.94Zm-108.825-.953c-.014-.508-.021-1.026-.021-1.539q0-.478.008-.954l.414.007q-.008.473-.008.947c0,.51.007,1.024.021,1.528Zm.5-4.958-.413-.026c.052-.827.123-1.663.212-2.484l.412.045C229.061,138.378,228.99,139.208,228.939,140.029Zm107.7-2.526c-.083-.816-.2-1.214-.317-2.027l.41-.06c.121.819.225,1.444.308,2.267Zm-107.168-2.392-.409-.063c.127-.819.274-1.645.438-2.454l.406.082c-.163.8-.309,1.623-.435,2.435Zm106.433-2.074c-.158-.808-.336-1.621-.53-2.417l.4-.1c.2.8.375,1.621.534,2.435Zm-105.453-2.775-.4-.1c.2-.8.424-1.611.662-2.4l.4.119C230.873,128.664,230.652,129.467,230.452,130.263Zm104.282-2.032c-.231-.788-.483-1.581-.75-2.357l.391-.135c.269.782.523,1.581.756,2.376Zm-102.857-2.712-.391-.137c.275-.783.572-1.569.883-2.338l.384.155C232.446,123.961,232.151,124.742,231.878,125.519Zm101.249-1.966c-.3-.762-.626-1.527-.962-2.273l.378-.17c.339.752.665,1.523.969,2.291Zm-99.39-2.63-.376-.173c.346-.753.714-1.508,1.094-2.245l.368.19C234.445,119.426,234.08,120.176,233.736,120.923Zm97.364-1.871c-.371-.731-.763-1.464-1.167-2.177l.36-.2c.407.719.8,1.457,1.176,2.194Zm-95.091-2.532-.359-.207c.413-.717.849-1.435,1.295-2.134l.349.223C236.851,115.1,236.419,115.809,236.009,116.52Zm92.659-1.767c-.438-.7-.9-1.39-1.362-2.062l.34-.236c.47.677.931,1.376,1.372,2.078Zm-89.993-2.407-.338-.239c.477-.677.976-1.352,1.484-2.006l.327.254C239.643,111.005,239.148,111.675,238.674,112.347Zm87.177-1.655c-.5-.654-1.019-1.3-1.545-1.931l.317-.266c.53.633,1.054,1.287,1.557,1.946Zm-84.143-2.257-.315-.268c.536-.629,1.094-1.255,1.659-1.861l.3.282C242.794,107.189,242.24,107.811,241.708,108.435Zm80.967-1.534c-.556-.605-1.133-1.206-1.715-1.783l.292-.294c.586.582,1.167,1.187,1.728,1.8Zm-77.591-2.084-.29-.3c.592-.579,1.2-1.152,1.821-1.7l.276.309C246.28,103.675,245.671,104.243,245.084,104.818Zm74.082-1.4c-.61-.553-1.239-1.1-1.871-1.621l.264-.319c.636.526,1.271,1.076,1.885,1.633Zm-70.393-1.891-.261-.321c.64-.522,1.3-1.036,1.967-1.529l.247.333c-.66.489-1.317,1-1.952,1.517Zm3.971-2.944-.231-.344c.685-.461,1.391-.913,2.1-1.343l.215.354c-.7.426-1.4.875-2.081,1.332Zm4.221-2.568-.2-.363c.725-.4,1.469-.782,2.21-1.144l.182.372C258.423,95.237,257.685,95.619,256.965,96.013Zm49.973-.959c-.737-.367-1.492-.722-2.243-1.054l.167-.379c.758.335,1.518.692,2.261,1.062ZM261.4,93.843l-.165-.38c.758-.328,1.533-.643,2.3-.936l.147.387C262.922,93.2,262.153,93.517,261.4,93.843Zm41-.794c-.767-.3-1.551-.581-2.332-.843l.132-.393c.787.264,1.578.55,2.35.85Zm-36.386-.96-.129-.393c.787-.258,1.59-.5,2.386-.722l.111.4C267.6,91.592,266.8,91.833,266.019,92.089Zm31.69-.616c-.79-.225-1.6-.435-2.394-.623l.1-.4c.805.19,1.617.4,2.413.628Zm-26.924-.707-.092-.4c.807-.184,1.629-.352,2.442-.5l.074.407C272.4,90.417,271.586,90.584,270.786,90.767Zm22.109-.428c-.806-.151-1.628-.286-2.441-.4l.057-.41c.82.115,1.648.251,2.46.4Zm-17.241-.451-.055-.41c.82-.109,1.653-.2,2.478-.273l.036.412C277.294,89.688,276.467,89.78,275.654,89.888ZM288,89.651c-.816-.077-1.646-.136-2.468-.176l.02-.414c.828.04,1.664.1,2.486.177Zm-7.415-.192-.017-.414c.761-.032,1.537-.048,2.306-.048h.187v.414h-.186C282.107,89.411,281.337,89.427,280.582,89.458Z" transform="translate(-216.531 -88.996)" />
    <rect class="a" width="151.759" height="0.414" transform="translate(34.99 135.05)" />
    <path class="c" d="M644.827,405l2.07,32.091s4.969,12.629,4.762,24.638c0,0-1.863,4.762-.414,5.59s2.277,1.449,1.449,2.07-1.449,2.07-.828,2.484.828,1.035.621,1.035h-6.211s1.242-3.106-.621-3.934-.828-2.9-.828-2.9L630.955,425.5l-10.973,37.267s1.863,1.242.414,1.863-2.07-.621-1.449.621a1.927,1.927,0,0,1-.207,2.07c0,.207-6.211-.621-6.211-.621s3.106-2.692,1.656-3.313-2.07-1.242-1.656-1.656a39.213,39.213,0,0,0,2.07-4.348s.828-14.907,1.035-15.528a39.16,39.16,0,0,0,0-4.969c0-1.449-.207-7.246.414-8.7s1.242-19.255,4.555-21.325S644.827,405,644.827,405Z" transform="translate(-521.015 -339.57)" />
    <path class="c" d="M579.355,699.215s4.141,8.489,1.242,9.524-6.625.207-7.453,1.449-9.938,2.692-10.145-.414,9.938-8.9,9.938-8.9l1.321-2.128Z" transform="translate(-481.837 -572.502)" />
    <path class="c" d="M741.355,729.215s4.141,8.489,1.242,9.524-6.625.207-7.453,1.449-9.938,2.692-10.145-.414,9.938-8.9,9.938-8.9l1.322-2.128Z" transform="translate(-610.297 -596.291)" />
    <circle class="d" cx="6.832" cy="6.832" r="6.832" transform="translate(105.074 12.738)" />
    <path class="d" d="M529.707,112.025l-.828,6-6.211,4.762-1.656-2.277v-7.867Z" transform="translate(-413.141 -88.831)" />
    <path class="a" d="M656.085,231.678s6.418.621,9.731-1.656l6.625,39.13s-23.4,1.863-24.431.621V257.558l4.141-19.876Z" transform="translate(-549.251 -200.824)" />
    <path class="b" d="M707.967,220.985l2.226,1.871s9.11,1.449,8.489,3.934l-2.484,29.4.828,9.938s-7.039-1.863-12.422,0-1.106-40.042-1.106-40.042S708.432,221.6,707.967,220.985Z" transform="translate(-591.972 -193.658)" />
    <path class="b" d="M649.984,231.931s-6.625,4.781-7.453,7.886-3.52,35.818-3.52,35.818,1.242-.621,1.863.414S651.019,233.568,649.984,231.931Z" transform="translate(-542.114 -202.338)" />
    <path class="c" d="M676.534,141.364a3.266,3.266,0,0,1-.455-2.3,6.982,6.982,0,0,0,.2-2.077,20.558,20.558,0,0,1,1.195-3.015c.6-1.081.313-1.536,2.191-1.878s1.109-2.788,6.059-.142a1.452,1.452,0,0,0,1.508.569c1.024-.2,1.394,1.223,1.394,1.223s.683-.4.939.171,2.082-.341,2.082,3.5a15.9,15.9,0,0,1-2.077,7.271s.152-6.46-3.233-7.114-7.027-2.56-7.908-.114A18.65,18.65,0,0,1,676.534,141.364Z" transform="translate(-571.456 -122.092)" />
    <ellipse class="d" cx="0.668" cy="0.89" rx="0.668" ry="0.89" transform="translate(117.517 19.028)" />
    <path class="b" d="M589.585,491.1a7.453,7.453,0,0,0-4.365-.835,6.435,6.435,0,0,0,7.147,4.3A7.458,7.458,0,0,0,589.585,491.1Z" transform="translate(-499.46 -407.152)" />
    <path class="b" d="M595.444,588.87H585.2a2.3,2.3,0,1,0,0,4.608h10.239a2.3,2.3,0,0,0,0-4.608Z" transform="translate(-497.621 -485.377)" />
    <path class="b" d="M628.085,471.412H570.676a5.085,5.085,0,0,0-5.085,5.085v27.971a5.085,5.085,0,0,0,5.085,5.085h57.409a5.085,5.085,0,0,0,5.085-5.085V476.5A5.085,5.085,0,0,0,628.085,471.412Zm-58.829,3.469a7.018,7.018,0,0,1,8.144,4.9l.09.279-.289.051a7.665,7.665,0,0,1-1.246.091,7.418,7.418,0,0,1-3.782-.953,8.033,8.033,0,0,1-3.116-4.038l-.09-.279Zm12.462,25.969H571.479a2.816,2.816,0,0,1,0-5.632h10.239a2.816,2.816,0,0,1,0,5.632Zm46.589-.512a3.081,3.081,0,0,1-3.072,3.072h-7.679a3.081,3.081,0,0,1-3.072-3.072V495.73a3.081,3.081,0,0,1,3.072-3.072h7.679a3.081,3.081,0,0,1,3.072,3.072Z" transform="translate(-483.895 -392.237)" />
    <path class="b" d="M812.149,606.8h-3.328a.9.9,0,1,0,0,1.792h3.328a.9.9,0,0,0,0-1.792Zm0,1.28h-3.328a.384.384,0,1,1,0-.768h3.328a.384.384,0,0,1,0,.768Z" transform="translate(-676.057 -499.593)" />
    <path class="b" d="M841.822,606.8h-3.328a.9.9,0,0,0,0,1.792h3.328a.9.9,0,1,0,0-1.792Zm0,1.28h-3.328a.384.384,0,0,1,0-.768h3.328a.384.384,0,1,1,0,.768Z" transform="translate(-699.587 -499.593)" />
    <path class="b" d="M812.149,595.67h-3.328a.9.9,0,1,0,0,1.792h3.328a.9.9,0,0,0,0-1.792Zm0,1.28h-3.328a.384.384,0,1,1,0-.768h3.328a.384.384,0,0,1,0,.768Z" transform="translate(-676.057 -490.769)" />
    <path class="b" d="M841.822,595.67h-3.328a.9.9,0,0,0,0,1.792h3.328a.9.9,0,1,0,0-1.792Zm0,1.28h-3.328a.384.384,0,0,1,0-.768h3.328a.384.384,0,1,1,0,.768Z" transform="translate(-699.587 -490.769)" />
    <path class="b" d="M812.149,584.542h-3.328a.9.9,0,1,0,0,1.792h3.328a.9.9,0,1,0,0-1.792Zm0,1.28h-3.328a.384.384,0,1,1,0-.768h3.328a.384.384,0,1,1,0,.768Z" transform="translate(-676.057 -481.945)" />
    <path class="b" d="M841.822,584.542h-3.328a.9.9,0,0,0,0,1.792h3.328a.9.9,0,1,0,0-1.792Zm0,1.28h-3.328a.384.384,0,0,1,0-.768h3.328a.384.384,0,1,1,0,.768Z" transform="translate(-699.587 -481.945)" />
    <path class="d" d="M746.618,435.471l-1.484,4.843s-.379,9.029-5.348,7.786,1.449-11.8,1.449-11.8l1.449-2.277Z" transform="translate(-620.529 -362.588)" />
    <path class="d" d="M610.618,435.471l-1.484,4.843s-.379,9.029-5.348,7.786,1.449-11.8,1.449-11.8l1.449-2.277Z" transform="translate(-512.686 -362.588)" />
    <path class="b" d="M758.359,241.856s3.313-.828,4.348,4.762,2.277,21.532,2.277,21.532l-4.969,16.77s-4.969-2.691-6-2.277l3.91-14.559-3.289-14.84S757.53,241.856,758.359,241.856Z" transform="translate(-633.305 -210.174)" />
    <path class="e" d="M580.747,209.393l4.348,14.493-4.348,14.7,2.484-14.7Z" transform="translate(-460.51 -166.041)" />
    <path class="b" d="M627.464,297.021l-7.453,29.4a29.266,29.266,0,0,1,5.381,2.333Z" transform="translate(-527.048 -253.952)" />
    <circle class="a" cx="20.704" cy="20.704" r="20.704" transform="translate(1.524 75.545)" />
    <circle class="f" cx="17.805" cy="17.805" r="17.805" transform="translate(4.423 78.444)" />
    <path class="g" d="M261.006,523.946v-2.591a6.018,6.018,0,0,1-3.456-1.129l.542-1.719a5.524,5.524,0,0,0,3.253,1.1,2.491,2.491,0,0,0,2.688-2.514c0-1.411-.881-2.284-2.552-3.053-2.3-1.026-3.727-2.207-3.727-4.439a4.034,4.034,0,0,1,3.411-4.131v-2.592h1.4v2.489a5.5,5.5,0,0,1,2.936.9l-.565,1.693a4.991,4.991,0,0,0-2.846-.872A2.168,2.168,0,0,0,259.7,509.3c0,1.334.836,2,2.8,2.925,2.326,1.078,3.5,2.412,3.5,4.7a4.294,4.294,0,0,1-3.569,4.362v2.669Z" transform="translate(-239.631 -417.19)" />
    <path class="a" d="M215.1,738.258a149.5,149.5,0,0,1-44.1,0v-4.969a166.108,166.108,0,0,0,44.1,0Z" transform="translate(-171 -599.895)" />
    <path class="a" d="M215.1,701.258a149.491,149.491,0,0,1-44.1,0v-4.969a166.113,166.113,0,0,0,44.1,0Z" transform="translate(-171 -570.556)" />
    <path class="a" d="M215.1,664.258a149.491,149.491,0,0,1-44.1,0v-4.969a166.113,166.113,0,0,0,44.1,0Z" transform="translate(-171 -541.216)" />
</svg>