<svg xmlns="http://www.w3.org/2000/svg" width="120" height="93.393" viewBox="0 0 120 93.393">
    <defs>
        <style>.a{fill:#3f3d56;}.b{fill:#d0cde1;}.c{fill:#2f2e41;}.d{fill:#a0616a;}.e{opacity:0.15;}.f{opacity:0.1;}.g{fill:#6c63ff;}</style>
    </defs>
    <path class="a" d="M964.313,665.02a9.833,9.833,0,0,1,6.324-11.728l.168-.063.04.176a9.833,9.833,0,0,1-6.324,11.728l-.169.063Zm6.261-11.363a9.483,9.483,0,0,0-5.99,11.11,9.483,9.483,0,0,0,5.99-11.11Z" transform="translate(-858.587 -578.164)" />
    <path class="b" d="M970.314,690.94a11.239,11.239,0,0,0-4.3,5.577,9.676,9.676,0,0,0,11.24-6.762A11.239,11.239,0,0,0,970.314,690.94Z" transform="translate(-860.248 -609.726)" />
    <path class="a" d="M263.407,158.974c-.369,0-.742-.006-1.108-.017l.008-.266c.526.016,1.062.021,1.59.014l0,.266Q263.655,158.974,263.407,158.974Zm2.095-.062-.016-.266c.526-.031,1.059-.075,1.584-.13l.028.265C266.57,158.837,266.033,158.881,265.5,158.913Zm-4.8-.041c-.531-.041-1.067-.094-1.594-.159l.033-.264c.523.064,1.055.117,1.582.157Zm7.987-.293-.04-.263c.523-.079,1.05-.172,1.566-.274l.052.261C269.745,158.406,269.214,158.5,268.688,158.579Zm-11.167-.1c-.524-.089-1.054-.191-1.573-.3l.056-.26c.515.112,1.041.213,1.561.3Zm14.308-.527-.064-.258c.513-.127,1.029-.267,1.534-.417l.076.255C272.866,157.685,272.346,157.826,271.829,157.954Zm-17.438-.153c-.514-.137-1.032-.287-1.538-.447l.08-.254c.5.159,1.016.308,1.526.444Zm20.509-.758-.087-.251c.5-.173,1-.36,1.489-.557l.1.247C275.907,156.68,275.4,156.869,274.9,157.043Zm-23.567-.208c-.5-.184-1-.382-1.494-.589l.1-.245c.488.206.987.4,1.482.584Zm26.538-.98-.11-.242c.478-.217.959-.449,1.429-.69l.121.237C278.837,155.4,278.352,155.635,277.87,155.854Zm2.847-1.455-.132-.231c.459-.262.917-.537,1.361-.818l.142.225C281.641,153.858,281.18,154.136,280.717,154.4Zm2.7-1.711-.152-.218c.432-.3.863-.618,1.281-.939l.162.211C284.291,152.066,283.856,152.385,283.421,152.689Zm-40.553-.375c-.429-.312-.858-.639-1.275-.971l.166-.208c.414.33.839.654,1.265.964Zm43.091-1.576-.172-.2c.4-.34.8-.694,1.191-1.052l.181.2C286.768,150.039,286.365,150.4,285.959,150.738Zm-45.6-.424c-.4-.35-.8-.715-1.181-1.083l.184-.192c.381.366.775.727,1.172,1.075Zm47.947-1.751-.189-.187c.371-.376.738-.765,1.091-1.157l.2.178C289.054,147.792,288.684,148.184,288.31,148.563Zm-50.258-.467c-.367-.386-.729-.785-1.077-1.185l.2-.174c.345.4.7.793,1.069,1.176Zm52.4-1.913-.206-.169c.335-.408.665-.829.982-1.252l.213.159C291.125,145.348,290.793,145.772,290.455,146.183Zm-54.5-.505c-.33-.416-.654-.846-.964-1.278l.216-.155c.308.428.63.855.957,1.268Zm56.421-2.062-.22-.149c.3-.437.587-.887.864-1.337l.227.139C292.966,142.723,292.673,143.176,292.374,143.616Zm-58.291-.536c-.29-.444-.574-.9-.843-1.36l.229-.135c.268.454.549.908.837,1.349Zm59.969-2.2-.233-.129c.255-.462.5-.937.738-1.411l.239.118C294.56,139.94,294.31,140.418,294.052,140.884Zm1.421-2.876-.244-.107c.212-.484.416-.98.605-1.474l.248.1C295.892,137.02,295.687,137.519,295.473,138.007Zm-64.377-.574c-.2-.49-.4-.99-.581-1.489l.25-.091c.18.495.374.992.576,1.477Zm65.528-2.423-.253-.084c.166-.5.323-1.012.466-1.52l.256.072C296.949,133.99,296.791,134.506,296.624,135.01ZM230,134.427c-.158-.507-.307-1.025-.442-1.54l.257-.068c.134.511.282,1.025.439,1.528Zm67.488-2.5-.259-.06c.119-.513.228-1.037.324-1.556l.262.048C297.721,130.882,297.611,131.409,297.491,131.926Zm-68.3-.6c-.111-.52-.211-1.049-.3-1.574l.262-.044c.086.521.186,1.046.3,1.562Zm68.881-2.552-.264-.036c.072-.521.132-1.052.18-1.579l.265.024C298.2,127.716,298.143,128.251,298.071,128.776Zm-69.4-.608c-.063-.527-.114-1.063-.153-1.594l.265-.019c.039.527.09,1.06.152,1.582Zm69.694-2.582-.266-.012c.024-.527.036-1.062.036-1.589h.266C298.4,124.517,298.384,125.055,298.36,125.587Zm-69.928-.612c-.009-.326-.014-.659-.014-.989q0-.307.005-.613l.266,0q-.005.3-.005.608c0,.328,0,.658.014.982Zm.321-3.186-.266-.017c.033-.532.079-1.069.136-1.6l.265.029C228.831,120.728,228.786,121.261,228.753,121.788Zm69.206-1.623c-.053-.525-.126-.78-.2-1.3l.263-.039c.078.526.144.928.2,1.456ZM229.1,118.628l-.263-.041c.082-.526.176-1.057.282-1.577l.261.053C229.27,117.58,229.176,118.106,229.1,118.628Zm68.391-1.332c-.1-.519-.216-1.042-.34-1.553l.259-.063c.125.515.241,1.042.343,1.565Zm-67.761-1.783-.258-.065c.129-.515.272-1.035.425-1.544l.255.077C230,114.486,229.854,115,229.725,115.513Zm67.009-1.306c-.148-.507-.31-1.016-.482-1.515l.252-.087c.173.5.336,1.016.486,1.527Zm-66.093-1.743-.251-.088c.177-.5.368-1.008.567-1.5l.247.1C231.006,111.464,230.817,111.966,230.641,112.465ZM295.7,111.2c-.194-.49-.4-.981-.618-1.461l.243-.109c.218.483.427.978.623,1.472Zm-63.866-1.69-.242-.111c.222-.484.459-.969.7-1.442l.236.122C232.291,108.55,232.056,109.031,231.836,109.512Zm62.563-1.2c-.238-.47-.49-.94-.75-1.4l.232-.131c.262.462.516.936.756,1.41Zm-61.1-1.627-.231-.133c.265-.461.545-.922.832-1.371l.224.143C233.837,105.767,233.559,106.225,233.3,106.683Zm59.54-1.135c-.281-.448-.576-.893-.875-1.325l.219-.152c.3.435.6.884.882,1.335ZM235.009,104l-.217-.153c.307-.435.627-.869.953-1.289l.21.163C235.631,103.139,235.313,103.569,235.009,104Zm56.017-1.063c-.321-.42-.655-.837-.993-1.241l.2-.171c.341.407.677.827,1,1.25Zm-54.068-1.45-.2-.173c.344-.4.7-.807,1.066-1.2l.194.182C237.656,100.687,237.3,101.086,236.958,101.487Zm52.027-.986c-.357-.389-.728-.775-1.1-1.146l.188-.189c.377.374.75.763,1.11,1.155Zm-49.858-1.339-.186-.19c.38-.372.774-.74,1.17-1.094l.177.2C239.9,98.428,239.5,98.794,239.127,99.163Zm47.6-.9c-.392-.355-.8-.706-1.2-1.041l.17-.205c.409.338.816.691,1.211,1.049ZM241.5,97.046l-.168-.206c.412-.335.837-.666,1.264-.982l.158.214c-.424.314-.846.642-1.255.975Zm2.552-1.891-.148-.221c.44-.3.894-.587,1.348-.863l.138.227c-.45.274-.9.562-1.337.856Zm2.712-1.65-.128-.233c.466-.255.944-.5,1.42-.735l.117.239C247.7,93.006,247.224,93.252,246.762,93.5Zm32.111-.616c-.473-.236-.958-.464-1.441-.677l.108-.243c.487.215.976.445,1.453.682Zm-29.261-.778-.106-.244c.487-.211.985-.413,1.48-.6l.094.249C250.589,91.7,250.1,91.9,249.612,92.111Zm26.348-.51c-.493-.191-1-.373-1.5-.542l.085-.252c.506.17,1.014.353,1.51.546Zm-23.38-.617-.083-.253c.506-.166,1.022-.322,1.533-.464l.071.256C253.593,90.664,253.082,90.819,252.58,90.984Zm20.363-.4c-.507-.145-1.025-.279-1.538-.4l.061-.259c.517.122,1.039.258,1.55.4Zm-17.3-.454-.059-.259c.518-.118,1.046-.226,1.569-.321l.047.262C256.681,89.909,256.157,90.016,255.643,90.134Zm14.207-.275c-.518-.1-1.046-.184-1.569-.257l.037-.263c.527.074,1.059.161,1.581.259Zm-11.079-.29-.035-.264c.527-.07,1.062-.129,1.592-.176l.023.265C259.825,89.441,259.293,89.5,258.771,89.569Zm7.931-.153c-.524-.049-1.058-.087-1.586-.113l.013-.266c.532.026,1.069.064,1.6.114Zm-4.765-.124-.011-.266c.489-.02.987-.031,1.481-.031h.12v.266h-.12C262.917,89.263,262.422,89.273,261.937,89.293Z" transform="translate(-220.78 -88.996)" />
    <rect class="a" width="97.517" height="0.266" transform="translate(22.483 86.78)" />
    <path class="c" d="M633.237,405l1.33,20.621s3.193,8.115,3.06,15.831c0,0-1.2,3.06-.266,3.592s1.463.931.931,1.33-.931,1.33-.532,1.6.532.665.4.665h-3.991s.8-2-.4-2.528-.532-1.863-.532-1.863l-8.914-26.075-7.051,23.947s1.2.8.266,1.2-1.33-.4-.931.4a1.238,1.238,0,0,1-.133,1.33c0,.133-3.991-.4-3.991-.4s2-1.729,1.064-2.129-1.33-.8-1.064-1.064a25.2,25.2,0,0,0,1.33-2.794s.532-9.579.665-9.978a25.155,25.155,0,0,0,0-3.193c0-.931-.133-4.656.266-5.588s.8-12.373,2.927-13.7S633.237,405,633.237,405Z" transform="translate(-553.679 -362.954)" />
    <path class="c" d="M573.508,699.047s2.661,5.455.8,6.12-4.257.133-4.789.931-6.386,1.729-6.519-.266,6.386-5.721,6.386-5.721l.849-1.367Z" transform="translate(-510.846 -617.624)" />
    <path class="c" d="M735.508,729.047s2.661,5.455.8,6.12-4.257.133-4.789.931-6.386,1.729-6.519-.266,6.386-5.721,6.386-5.721l.849-1.367Z" transform="translate(-651.293 -643.633)" />
    <circle class="d" cx="4.39" cy="4.39" r="4.39" transform="translate(67.518 8.185)" />
    <path class="d" d="M526.6,112.025l-.532,3.858-3.991,3.06-1.064-1.463v-5.055Z" transform="translate(-451.697 -97.121)" />
    <path class="a" d="M653.2,231.086s4.124.4,6.253-1.064l4.257,25.144s-15.033,1.2-15.7.4v-7.849l2.661-12.772Z" transform="translate(-584.55 -211.26)" />
    <path class="b" d="M705.794,220.985l1.431,1.2s5.854.931,5.455,2.528l-1.6,18.891.532,6.386s-4.523-1.2-7.982,0-.711-25.73-.711-25.73S706.093,221.38,705.794,220.985Z" transform="translate(-631.258 -203.426)" />
    <path class="b" d="M646.062,231.931S641.8,235,641.272,237s-2.262,23.016-2.262,23.016.8-.4,1.2.266S646.727,232.983,646.062,231.931Z" transform="translate(-576.748 -212.915)" />
    <path class="c" d="M676.348,137.564a2.1,2.1,0,0,1-.292-1.481,4.486,4.486,0,0,0,.128-1.334,13.211,13.211,0,0,1,.768-1.938c.384-.695.2-.987,1.408-1.206s.713-1.791,3.894-.091a.933.933,0,0,0,.969.366c.658-.128.9.786.9.786s.439-.256.6.11,1.338-.219,1.338,2.248a10.218,10.218,0,0,1-1.335,4.672s.1-4.151-2.078-4.571-4.515-1.645-5.082-.073A11.987,11.987,0,0,1,676.348,137.564Z" transform="translate(-608.828 -125.18)" />
    <ellipse class="d" cx="0.429" cy="0.572" rx="0.429" ry="0.572" transform="translate(75.514 12.227)" />
    <path class="b" d="M588.025,490.783a4.789,4.789,0,0,0-2.8-.536,4.135,4.135,0,0,0,4.593,2.763A4.793,4.793,0,0,0,588.025,490.783Z" transform="translate(-530.113 -436.843)" />
    <path class="b" d="M590.96,588.87h-6.58a1.48,1.48,0,1,0,0,2.961h6.58a1.48,1.48,0,1,0,0-2.961Z" transform="translate(-528.102 -522.368)" />
    <path class="b" d="M605.748,471.412H568.859a3.268,3.268,0,0,0-3.268,3.268v17.973a3.268,3.268,0,0,0,3.268,3.268h36.889a3.268,3.268,0,0,0,3.268-3.268V474.68A3.268,3.268,0,0,0,605.748,471.412Zm-37.8,2.229a4.51,4.51,0,0,1,5.233,3.148l.058.179-.186.033a4.922,4.922,0,0,1-.8.059,4.766,4.766,0,0,1-2.43-.612,5.161,5.161,0,0,1-2-2.595l-.058-.179Zm8.008,16.687h-6.579a1.809,1.809,0,1,1,0-3.619h6.579a1.809,1.809,0,1,1,0,3.619ZM605.891,490a1.98,1.98,0,0,1-1.974,1.974h-4.935A1.98,1.98,0,0,1,597.008,490v-2.961a1.98,1.98,0,0,1,1.974-1.974h4.935a1.98,1.98,0,0,1,1.974,1.974Z" transform="translate(-513.096 -420.536)" />
    <path class="b" d="M810.639,606.8H808.5a.576.576,0,1,0,0,1.151h2.138a.576.576,0,1,0,0-1.151Zm0,.822H808.5a.247.247,0,1,1,0-.493h2.138a.247.247,0,0,1,0,.493Z" transform="translate(-723.19 -537.91)" />
    <path class="b" d="M840.313,606.8h-2.138a.576.576,0,0,0,0,1.151h2.138a.576.576,0,1,0,0-1.151Zm0,.822h-2.138a.247.247,0,0,1,0-.493h2.138a.247.247,0,1,1,0,.493Z" transform="translate(-748.916 -537.91)" />
    <path class="b" d="M810.639,595.67H808.5a.576.576,0,1,0,0,1.151h2.138a.576.576,0,1,0,0-1.151Zm0,.823H808.5a.247.247,0,0,1,0-.494h2.138a.247.247,0,0,1,0,.494Z" transform="translate(-723.19 -528.263)" />
    <path class="b" d="M840.313,595.67h-2.138a.576.576,0,0,0,0,1.151h2.138a.576.576,0,1,0,0-1.151Zm0,.823h-2.138a.247.247,0,0,1,0-.494h2.138a.247.247,0,1,1,0,.494Z" transform="translate(-748.916 -528.263)" />
    <path class="b" d="M810.639,584.542H808.5a.576.576,0,1,0,0,1.151h2.138a.576.576,0,1,0,0-1.151Zm0,.822H808.5a.247.247,0,1,1,0-.493h2.138a.247.247,0,1,1,0,.493Z" transform="translate(-723.19 -518.616)" />
    <path class="b" d="M840.313,584.542h-2.138a.576.576,0,0,0,0,1.151h2.138a.576.576,0,1,0,0-1.151Zm0,.822h-2.138a.247.247,0,0,1,0-.493h2.138a.247.247,0,1,1,0,.493Z" transform="translate(-748.916 -518.616)" />
    <path class="d" d="M743.5,434.953l-.954,3.112s-.244,5.8-3.437,5,.931-7.583.931-7.583l.931-1.463Z" transform="translate(-662.48 -388.12)" />
    <path class="d" d="M607.5,434.953l-.954,3.112s-.244,5.8-3.437,5,.931-7.583.931-7.583l.931-1.463Z" transform="translate(-544.573 -388.12)" />
    <path class="b" d="M756.8,241.84s2.129-.532,2.794,3.06,1.463,13.836,1.463,13.836l-3.193,10.776s-3.193-1.729-3.858-1.463l2.513-9.355-2.114-9.536S756.272,241.84,756.8,241.84Z" transform="translate(-676.448 -221.482)" />
    <path class="e" d="M580.747,209.393l2.794,9.313-2.794,9.446,1.6-9.446Z" transform="translate(-503.486 -181.536)" />
    <path class="b" d="M624.8,297.021l-4.789,18.891a18.805,18.805,0,0,1,3.458,1.5Z" transform="translate(-560.275 -269.346)" />
    <circle class="a" cx="13.304" cy="13.304" r="13.304" transform="translate(0.979 48.543)" />
    <circle class="f" cx="11.441" cy="11.441" r="11.441" transform="translate(2.842 50.406)" />
    <path class="g" d="M259.771,516.417v-1.665a3.867,3.867,0,0,1-2.221-.725l.348-1.1a3.55,3.55,0,0,0,2.09.709,1.6,1.6,0,0,0,1.727-1.616c0-.907-.566-1.467-1.64-1.962-1.48-.659-2.395-1.418-2.395-2.852a2.592,2.592,0,0,1,2.192-2.655v-1.665h.9v1.6a3.53,3.53,0,0,1,1.887.577l-.363,1.088a3.207,3.207,0,0,0-1.829-.561A1.393,1.393,0,0,0,258.929,507c0,.857.537,1.286,1.8,1.88,1.495.693,2.25,1.55,2.25,3.017a2.759,2.759,0,0,1-2.293,2.8v1.715Z" transform="translate(-246.036 -447.818)" />
    <path class="a" d="M199.337,736.482a96.063,96.063,0,0,1-28.337,0v-3.193a106.738,106.738,0,0,0,28.337,0Z" transform="translate(-171 -647.573)" />
    <path class="a" d="M199.337,699.482a96.059,96.059,0,0,1-28.337,0v-3.193a106.738,106.738,0,0,0,28.337,0Z" transform="translate(-171 -615.496)" />
    <path class="a" d="M199.337,662.482a96.055,96.055,0,0,1-28.337,0v-3.193a106.738,106.738,0,0,0,28.337,0Z" transform="translate(-171 -583.418)" />
</svg>