<svg xmlns="http://www.w3.org/2000/svg" xmlns:xlink="http://www.w3.org/1999/xlink" width="258.019" height="158.85" viewBox="0 0 258.019 158.85">
    <defs>
        <style>.a,.b{fill:#6c63ff;}.a,.i,.r,.w{opacity:0.1;}.c{fill:#444053;}.d,.e{fill:none;stroke:#444053;stroke-miterlimit:10;}.e{stroke-width:0.75px;}.f,.i{fill:#33323d;}.g{fill:#fff;}.h{fill:#504f60;}.j{fill:#8ccf4d;}.j,.k{opacity:0.8;}.k{fill:#fa5959;}.l{fill:#fbbebe;}.m{opacity:0.05;}.n{fill:#3f3d56;}.o{fill:#464353;}.p{fill:url(#a);}.q{fill:#65617d;}.s{fill:#ee8e9e;}.t{fill:#e3e8f4;}.u{fill:#e6e8ec;}.v{fill:#565387;}.x{fill:#a1616a;}.y{fill:#514e7f;}.z{fill:url(#b);}</style>
        <linearGradient id="a" x1="0.5" y1="1" x2="0.5" gradientUnits="objectBoundingBox">
            <stop offset="0" stop-color="gray" stop-opacity="0.251" />
            <stop offset="0.54" stop-color="gray" stop-opacity="0.122" />
            <stop offset="1" stop-color="gray" stop-opacity="0.102" />
        </linearGradient>
        <linearGradient id="b" x1="0.001" y1="0.5" x2="1" y2="0.5" xlink:href="#a" />
    </defs>
    <g transform="translate(0)">
        <path class="a" d="M269.089,189.367a52.872,52.872,0,0,1-1.549,12.758q-.521,2.107-1.211,4.132a49.213,49.213,0,0,1-1.954,4.889q-.559,1.207-1.181,2.37a31.893,31.893,0,0,1-2.666,12.813A33.048,33.048,0,0,1,244.5,242.846a33.736,33.736,0,0,1-14.329,3.286H60.054a42.864,42.864,0,0,1-21.56-5.761q-1.452-.841-2.83-1.792a42.808,42.808,0,0,1-5.6-4.618,41.683,41.683,0,0,1-6.158-7.639,40.715,40.715,0,0,1-6.263-21.737c-2.939-5.157-6.014-17.658-6.014-17.658s-.557-4.989-.557-7.727a50.3,50.3,0,0,1,10.167-30.789,43.284,43.284,0,0,1,4.318-4.8,40.182,40.182,0,0,1,4.938-4.042,38.107,38.107,0,0,1,4.381-2.629c.633-.324,1.268-.627,1.915-.909.567-.252,1.141-.486,1.722-.708q1.045-.4,2.116-.729t2.114-.583q1.533-.375,3.119-.609c.876-.129,1.752-.219,2.629-.289q1.045-.074,2.107-.088h.383c.78,0,1.555.031,2.324.083.081-.162.169-.326.25-.489.307-.583.624-1.165.944-1.737v-.015c.055-.1.11-.2.166-.294.258-.467.528-.929.8-1.387.127-.219.252-.425.381-.633.028-.05.057-.1.09-.149q.2-.329.4-.657,1.014-1.619,2.11-3.187c.064-.09.123-.177.186-.265.114-.162.219-.322.346-.482.3-.423.613-.848.927-1.266.219-.3.438-.591.675-.876q.854-1.1,1.752-2.191c.6-.723,1.229-1.45,1.866-2.162.088-.1.175-.195.267-.294L65.4,116h0c.046-.048.085-.092.129-.136h0c.112-.12.219-.241.34-.359.5-.53,1.016-1.054,1.533-1.571a83.5,83.5,0,0,1,8.421-7.317c.116-.092.234-.18.35-.267.556-.421,1.122-.835,1.687-1.242a89.121,89.121,0,0,1,9.729-6.068c.232-.131.469-.256.708-.381a93.378,93.378,0,0,1,9.308-4.285q2.6-1.027,5.288-1.919c1.187-.388,2.379-.758,3.586-1.1q2.8-.8,5.669-1.45a101.5,101.5,0,0,1,17.139-2.335q2.629-.138,5.317-.138a101.864,101.864,0,0,1,25.63,3.242.924.924,0,0,0,.8.414h.736c.32.085.637.175.957.267q2.679.773,5.282,1.685l.438.158a94.284,94.284,0,0,1,12.467,5.477,90.268,90.268,0,0,1,10.438,6.449q.769.552,1.516,1.115.907-.585,1.844-1.115a36.275,36.275,0,0,1,7.641-3.255,34.853,34.853,0,0,1,17.139-.67,37.925,37.925,0,0,1,19.2,10.83,44.81,44.81,0,0,1,5.766,7.29c.12.188.241.379.357.572a48.2,48.2,0,0,1,3.667,7.314c.037.092.074.182.107.274a50.626,50.626,0,0,1,2.256,7.306c.026.125.057.252.083.379a52.6,52.6,0,0,1,1.078,7.31,1.385,1.385,0,0,0,.018.267q.138,1.908.14,3.858c0,1.161-.039,2.313-.112,3.455,0,.125-.018.256-.028.383-.02.333-.048.657-.077.992a41.561,41.561,0,0,1,4.684,4.416q.957,1.045,1.853,2.171a46.039,46.039,0,0,1,4.776,7.31A51.46,51.46,0,0,1,269.089,189.367Z" transform="translate(-11.07 -87.44)" />
        <path class="a" d="M333.456,652.981c0,4.979-5.161,9.639-14.167,13.652H149.175a34.7,34.7,0,0,1-21.56-7.814,9.065,9.065,0,0,1-2.425-5.84c0-5.293,5.836-10.232,15.926-14.408h0l.285-.114c2.848-1.168,6.031-2.269,9.509-3.306.088-.026.177-.05.265-.081h0q4.14-1.216,8.808-2.3c.1-.022.195-.046.294-.064,1.2-.285,2.425-.55,3.676-.815h0l.482-.1a274.472,274.472,0,0,1,30.669-4.4h.013q2.357-.219,4.765-.392c1.785-.142,3.593-.263,5.42-.375,1.4-.09,2.808-.167,4.226-.237a.041.041,0,0,1,.033,0c6.394-.322,13-.491,19.757-.491a363.973,363.973,0,0,1,46.487,2.848.112.112,0,0,1,.039,0c2.151.28,4.263.576,6.322.892.589.092,1.176.184,1.752.278q3.485.563,6.791,1.19h0C316.623,636.024,333.456,644,333.456,652.981Z" transform="translate(-100.191 -507.936)" />
        <path class="b" d="M726.043,199.737s-2.318-.94-9.691,2.44-8.294,2.953-10.2,2.445-2.973-.64-5.019-3.463c0,0-1.444-7.823-2.848-9.036s-7.332.692-7.332.692-7.117,1.632-8.473-7.886c0,0,.962-7.168-.348-9.367,0,0,2.646,1.139,7.01-.7S697,176.842,697,176.842a14.475,14.475,0,0,1,.986,4.548c-.11,1.7.583,2.337,2.664,1.516,0,0,1.023-1.455-.425-3.86s-2.482-4.2-2.079-6.061a7.529,7.529,0,0,1,5.3-5.753c3.735-1.295,8.806-1.533,11.24-2.556A9.748,9.748,0,0,0,717.719,163s-1.5,1.5,2.031,7.864,1.279,9.124,1.279,9.124-1.877,4.475-10.167,4.112c0,0-7.987.291-3.632,3.678,0,0,2.789-.567,6.957-1.893s7.179,4.145,7.926,7.95A10.02,10.02,0,0,0,726.043,199.737Z" transform="translate(-535.127 -146.448)" />
        <path class="c" d="M811.151,184.953l.044-.013c.32,1.214-3.249,6.094-6.3,9.974l-.035-.028C809.162,189.422,811.4,185.893,811.151,184.953Z" transform="translate(-630.971 -163.581)" />
        <path class="c" d="M774.137,230l.02.048c-2.438,3.1-5.5,6.791-7.956,9.536-.234.261-.467.535-.69.815l-.07-.057c.219-.28.458-.556.692-.817C768.584,236.791,771.7,233.1,774.137,230Z" transform="translate(-600.187 -198.771)" />
        <path class="c" d="M745.515,276.89l.048.083c-4.464,5.575-4.76,14.239-4.771,14.307l-.942-1.1C739.861,290.115,741.02,282.5,745.515,276.89Z" transform="translate(-580.202 -235.389)" />
        <path class="d" d="M735.088,251.738s-5.257-2.738-9.367-1.752S712.37,246.5,712.37,246.5s-3.921-1.593-4.71-3.409c0,0-2.692-2.848-2.848-4.318s-2.773-5.174-4.482-5.317" transform="translate(-549.34 -201.473)" />
        <path class="d" d="M847.032,315.139s-2.651-1.788-2.342-3.869" transform="translate(-662.057 -262.237)" />
        <path class="d" d="M822.072,315.313s-3.792-1.376-4.162-6.773" transform="translate(-641.162 -260.105)" />
        <path class="d" d="M799.5,316.4a8.484,8.484,0,0,1-2.421-8.259" transform="translate(-624.703 -259.793)" />
        <path class="d" d="M771.3,309.363s-2.41-5.06-.265-8.353" transform="translate(-603.858 -254.225)" />
        <path class="d" d="M851.259,301.67s-2.74.876-2.153,2.313" transform="translate(-665.46 -254.74)" />
        <path class="d" d="M830.745,279s-3.669,1.163-3.755,6.353" transform="translate(-648.253 -237.036)" />
        <path class="d" d="M809.689,273.48s-3.341,4.123-3.1,7.869" transform="translate(-632.315 -232.726)" />
        <path class="d" d="M783.621,280.86s-3.317,3.172-2.894,4.935" transform="translate(-612.096 -238.489)" />
        <path class="d" d="M772.3,274.094s-3.111.556-3.547-.464" transform="translate(-602.771 -232.843)" />
        <path class="d" d="M766.49,258.61s1.571,2.081,1.972,1.615" transform="translate(-601.007 -221.113)" />
        <path class="d" d="M803.327,246.2s-7.842.57-9.617-1.8" transform="translate(-622.264 -210.016)" />
        <path class="d" d="M759,210.73s3.678,7.9,6.353,8.9" transform="translate(-595.157 -183.722)" />
        <path class="d" d="M776.58,193.56s2.258,7.264,5.058,9.531" transform="translate(-608.886 -170.313)" />
        <path class="e" d="M818.652,225.121s-5.963,2.559-9.542-.031" transform="translate(-634.29 -194.936)" />
        <path class="e" d="M800.82,186.49s1.363,5.339,3.2,6.629" transform="translate(-627.816 -164.792)" />
        <path class="e" d="M832.16,197.92s-3.352,1.271-4.6.3" transform="translate(-648.698 -173.718)" />
        <path class="d" d="M748.866,266.57s0,4.655-1.266,4.986" transform="translate(-586.255 -227.329)" />
        <path class="d" d="M706.09,286.377s5.038.438,7.354-2.167" transform="translate(-553.838 -241.105)" />
        <path class="d" d="M731.138,241.47s-1.218,4.721-4.578,5.994" transform="translate(-569.824 -207.728)" />
        <path class="d" d="M692.31,264.575a6.592,6.592,0,0,0,6.627-1.915" transform="translate(-543.076 -224.276)" />
        <path class="d" d="M720.4,222.94s-.335,4.009-2.515,5.886" transform="translate(-563.053 -193.257)" />
        <path class="d" d="M692.93,240.144s2.955.02,3.647-.944" transform="translate(-543.561 -205.955)" />
        <rect class="f" width="84.163" height="42.485" transform="translate(86.58 49.412)" />
        <rect class="f" width="136.865" height="27.965" transform="translate(60.362 104.803)" />
        <path class="g" d="M371.949,510.35H442.13l13.983,47.057H357.16Z" transform="translate(-278.915 -398.556)" />
        <path class="h" d="M257.73,402.33v44.636h26.217V421.154h92.229v25.812h26.217V402.33Z" transform="translate(-201.267 -314.199)" />
        <rect class="i" width="144.664" height="14.519" transform="translate(56.463 88.131)" />
        <circle class="j" cx="2.151" cy="2.151" r="2.151" transform="translate(191.179 93.241)" />
        <circle class="k" cx="2.151" cy="2.151" r="2.151" transform="translate(181.499 93.241)" />
        <rect class="g" width="77.979" height="46.248" transform="translate(89.673 39.192)" />
        <path class="l" d="M782,563.822c.164,1.79-1.187,3.527-.793,5.279.083.375.245.729.3,1.1a4.268,4.268,0,0,1-1.052,2.9l-5.089,7.487a4.648,4.648,0,0,1-.727.9c-.975.876-2.434.775-3.711,1.034a6.371,6.371,0,0,0-2.486,1.1.162.162,0,0,0-.033.219,2.14,2.14,0,0,0,1.849.876c.134.175,0,.438-.184.561-.274.188-.657.239-.7.7a.771.771,0,0,0,.092.467,1.448,1.448,0,0,0,.892.618c1.753.539,3.665-.407,4.984-1.7s2.265-2.913,3.56-4.226c.716-.725,1.533-1.347,2.269-2.05a25.48,25.48,0,0,0,3.724-4.819,5.3,5.3,0,0,0,.806-1.641c.136-.583.074-1.2.232-1.777a6.565,6.565,0,0,1,1.22-1.993,6.586,6.586,0,0,0,1.387-4.3,4.116,4.116,0,0,0-2.513-3.564,2.254,2.254,0,0,0-1.409-.085,3.341,3.341,0,0,0-1.435,1.141l-.966,1.115a2.691,2.691,0,0,0-.563.857.892.892,0,0,0,.2.951" transform="translate(-602.49 -457.128)" />
        <path class="m" d="M782,563.822c.164,1.79-1.187,3.527-.793,5.279.083.375.245.729.3,1.1a4.268,4.268,0,0,1-1.052,2.9l-5.089,7.487a4.648,4.648,0,0,1-.727.9c-.975.876-2.434.775-3.711,1.034a6.371,6.371,0,0,0-2.486,1.1.162.162,0,0,0-.033.219,2.14,2.14,0,0,0,1.849.876c.134.175,0,.438-.184.561-.274.188-.657.239-.7.7a.771.771,0,0,0,.092.467,1.448,1.448,0,0,0,.892.618c1.753.539,3.665-.407,4.984-1.7s2.265-2.913,3.56-4.226c.716-.725,1.533-1.347,2.269-2.05a25.48,25.48,0,0,0,3.724-4.819,5.3,5.3,0,0,0,.806-1.641c.136-.583.074-1.2.232-1.777a6.565,6.565,0,0,1,1.22-1.993,6.586,6.586,0,0,0,1.387-4.3,4.116,4.116,0,0,0-2.513-3.564,2.254,2.254,0,0,0-1.409-.085,3.341,3.341,0,0,0-1.435,1.141l-.966,1.115a2.691,2.691,0,0,0-.563.857.892.892,0,0,0,.2.951" transform="translate(-602.49 -457.128)" />
        <path class="n" d="M832.269,777.377a5.887,5.887,0,0,1-3.79.561c-.219-.024-.453-.039-.587.12-.193.234.035.576.269.765a5.639,5.639,0,0,0,2.6,1.071,17.624,17.624,0,0,0,2.545.169,43.142,43.142,0,0,0,6.957-.256.939.939,0,0,0,.379-.112.7.7,0,0,0,.287-.438,1.727,1.727,0,0,0-.6-1.654,5.241,5.241,0,0,0-1.623-.876l-2.02-.786a5.211,5.211,0,0,0-1.753-.637C833.993,775.38,833.071,776.909,832.269,777.377Z" transform="translate(-648.901 -624.617)" />
        <path class="m" d="M832.269,777.377a5.887,5.887,0,0,1-3.79.561c-.219-.024-.453-.039-.587.12-.193.234.035.576.269.765a5.639,5.639,0,0,0,2.6,1.071,17.624,17.624,0,0,0,2.545.169,43.142,43.142,0,0,0,6.957-.256.939.939,0,0,0,.379-.112.7.7,0,0,0,.287-.438,1.727,1.727,0,0,0-.6-1.654,5.241,5.241,0,0,0-1.623-.876l-2.02-.786a5.211,5.211,0,0,0-1.753-.637C833.993,775.38,833.071,776.909,832.269,777.377Z" transform="translate(-648.901 -624.617)" />
        <path class="o" d="M849.092,621.4c-.839,1.119-1.711,2.41-1.5,3.8a8.439,8.439,0,0,0,.837,2.1,14.764,14.764,0,0,1,.848,2.944c.315,1.466.631,2.935.824,4.423.219,1.68-.81,6.541-.907,8.235a1.743,1.743,0,0,1-.355,1.143c-.112.116-.261.219-.309.361a.607.607,0,0,0,.066.425,4.715,4.715,0,0,0,2.524,2.322,20.016,20.016,0,0,0,4.87,1.279.922.922,0,0,0,.458-.061.877.877,0,0,0,.355-.405c.846-1.615.033-7.363.046-9.187,0-1.533.37-3.032.3-4.552-.055-1.22-.381-2.41-.5-3.628a21.378,21.378,0,0,1,.539-5.969c.28-1.509.561-3.021.92-4.515a8.7,8.7,0,0,1,.975-2.629c.4-.629.935-1.152,1.389-1.753a7.886,7.886,0,0,0,1.553-5.779c-.026-.2-2.918.734-3.17.843a9.926,9.926,0,0,0-2.824,1.818,25.669,25.669,0,0,0-1.781,2.2q-1.242,1.512-2.451,3.047Q850.426,619.623,849.092,621.4Z" transform="translate(-664.315 -495.465)" />
        <path class="m" d="M849.092,621.155c-.839,1.119-1.711,2.41-1.5,3.8a8.456,8.456,0,0,0,.837,2.094,14.808,14.808,0,0,1,.848,2.944c.315,1.466.631,2.935.824,4.423.219,1.68-.81,6.543-.907,8.237a1.737,1.737,0,0,1-.355,1.141c-.112.116-.261.219-.309.361a.615.615,0,0,0,.066.438,4.711,4.711,0,0,0,2.524,2.32,19.285,19.285,0,0,0,4.87.914.922.922,0,0,0,.458-.061.877.877,0,0,0,.355-.405c.846-1.615.033-7,.046-8.819,0-1.533.37-3.034.3-4.554-.055-1.22-.381-2.41-.5-3.628a21.354,21.354,0,0,1,.539-5.967c.28-1.511.561-3.023.92-4.517a8.7,8.7,0,0,1,.975-2.629c.4-.627.935-1.152,1.389-1.739a7.9,7.9,0,0,0,1.553-5.779c-.026-.2-2.918.732-3.17.843a9.872,9.872,0,0,0-2.824,1.823,27.752,27.752,0,0,0-1.781,2.191q-1.242,1.512-2.451,3.049Q850.426,619.385,849.092,621.155Z" transform="translate(-664.315 -495.291)" />
        <circle class="l" cx="4.716" cy="4.716" r="4.716" transform="translate(170.708 91.857)" />
        <path class="l" d="M815.19,524.176a6.121,6.121,0,0,0,3.915,2.738l-.355,1.286c-.613,2.219-1.314,4.565-3.016,6.1a2.858,2.858,0,0,0-.48-2.206,8.459,8.459,0,0,0-1.6-1.674l-2.714-2.362a.81.81,0,0,1-.2-.219.7.7,0,0,1,0-.517,6.313,6.313,0,0,1,2.134-2.475,7.581,7.581,0,0,0,1.073-1.251C814.5,522.826,814.833,523.6,815.19,524.176Z" transform="translate(-635.52 -427.8)" />
        <path class="o" d="M779.259,493.19l-.105-.876c.745.193,1.45-.438,1.926-1.1s.918-1.428,1.643-1.7c.876-.333,1.814.2,2.655.637a8.41,8.41,0,0,0,3.049,1,1.973,1.973,0,0,1,.5.083,1.743,1.743,0,0,1,.887,1.5,5.8,5.8,0,0,0,.328,1.842c.2.421.557.734.771,1.148.576,1.117.02,2.642.629,3.737l-1.512-1.387c-.14-.127-.335-.259-.486-.151s-.129.269-.18.416a.79.79,0,0,1-1.076.392,2.944,2.944,0,0,1-.962-.876,5.853,5.853,0,0,0-2.41-1.818,3.08,3.08,0,0,0-2.539.151c-.705.4-1.222,1.327-2.085,1.36-1.185.044-1.678-2.162-2.228-3.034a1.073,1.073,0,0,0,.311-1.338C778.477,493.146,779.244,493.047,779.259,493.19Z" transform="translate(-610.05 -401.357)" />
        <path class="n" d="M858.441,774.9a4.986,4.986,0,0,1-3.391,1.264c-.318,0-.758.061-.76.379a.508.508,0,0,0,.092.263,3.117,3.117,0,0,0,1.752,1.371,6.228,6.228,0,0,0,2.116.136l2.07-.107c.39-.022.782-.042,1.172-.09s.811-.129,1.218-.188a15.939,15.939,0,0,1,3.014-.142.9.9,0,0,0,.743-.2c.167-.2.077-.565.015-.856-.123-.6,0-1.229-.114-1.831a3.225,3.225,0,0,0-2.112-2.25c-.931-.355-2.583-.76-3.466-.171A23.217,23.217,0,0,0,858.441,774.9Z" transform="translate(-669.573 -622.177)" />
        <path class="o" d="M867.733,607.616c.184.876,1.023,1.533,1.049,2.41a3.8,3.8,0,0,1-.852,1.917,12.706,12.706,0,0,0-.876,1.972,30.147,30.147,0,0,1-2.559,5.071,4.028,4.028,0,0,0-.918,2.51,3.764,3.764,0,0,0,.438,1.2l1.457,2.894a8.325,8.325,0,0,1,.745,1.829c.125.55.138,1.119.219,1.68.23,1.774,1.063,3.562.572,5.282-.044.149-.2.329-.313.219a5.464,5.464,0,0,1,.83,2.824,3.882,3.882,0,0,0,.015,1.59,1.729,1.729,0,0,1,.219.627c0,.145-.068.283-.083.438a.936.936,0,0,0,.727.876c.392.125.815.12,1.209.239a7.273,7.273,0,0,1,1.95,1.332,4.1,4.1,0,0,0,2.239.73.561.561,0,0,0,.329-.066.534.534,0,0,0,.184-.4,2.221,2.221,0,0,0-.8-1.93.892.892,0,0,1-.3-.311.744.744,0,0,1-.028-.348,26,26,0,0,0-.086-4.78,7.234,7.234,0,0,1-.077-1.52,5.913,5.913,0,0,0,.123-1.266,6.775,6.775,0,0,0-.388-1.211,8.7,8.7,0,0,1-.186-2.256,19.685,19.685,0,0,0-.64-3.882,2.9,2.9,0,0,0-.6-1.4c-.3-.315-.791-.62-.677-1.04a1.2,1.2,0,0,1,.276-.414,1.662,1.662,0,0,0,.348-1.268.565.565,0,0,0,.657-.307,10.2,10.2,0,0,0,5.126-5.829,1.936,1.936,0,0,1,.219-.519,2.368,2.368,0,0,1,.938-.609,7.117,7.117,0,0,0,2.467-2.513,5.835,5.835,0,0,0,.951-1.825,5.982,5.982,0,0,0,.131-1.314l.059-2.283a1.23,1.23,0,0,0-.044-.438,1.057,1.057,0,0,0-.245-.361,4.4,4.4,0,0,0-2.41-1.314c-.622-.112-1.257-.09-1.886-.142a23.948,23.948,0,0,0-3.645-.39,5.831,5.831,0,0,0-4.53,3.168C868.747,607.088,868.414,607.616,867.733,607.616Z" transform="translate(-676.814 -490.295)" />
        <path class="b" d="M826.453,537.153a2.5,2.5,0,0,1-.138,1.038.726.726,0,0,1-.852.438c.1-.219-.164-.48-.407-.451a.758.758,0,0,0-.539.458,1.7,1.7,0,0,0-.156,1.054,4.256,4.256,0,0,1,.267,1.314c-.055.372-.329.745-.182,1.1a1.775,1.775,0,0,0,.35.421,1.187,1.187,0,0,1-.125,1.632l3.676.072a2.6,2.6,0,0,0,.456,1.79,11.273,11.273,0,0,0,8.4,5.477.734.734,0,0,0-.175,1.119,1.035,1.035,0,0,0,1.179.066,8.606,8.606,0,0,0,1.012-.756,3.091,3.091,0,0,1,2.077-.561c.46.044.907.193,1.369.219,1.363.072,2.532-.907,3.836-1.314a9.024,9.024,0,0,0,2.848-.889,1.13,1.13,0,0,0,.528-1.1,1.817,1.817,0,0,0-.4-.644,10.91,10.91,0,0,1-1.062-1.991,11.936,11.936,0,0,0-2.657-3.558,23.865,23.865,0,0,0-2.629-2,4.625,4.625,0,0,0-.714-.438,7.483,7.483,0,0,1-.977-.4,4.946,4.946,0,0,1-1.012-1.139,15.239,15.239,0,0,0-2.747-1.91,6.739,6.739,0,0,0-1.853-1.255c-.348-.105-.721-.114-1.071-.219-.793-.241-1.371-.946-2.151-1.231a9.141,9.141,0,0,0-1.95-.248,4.5,4.5,0,0,1-2-.76,2.41,2.41,0,0,0-.657-.377c-.984-.3-1.065,1.533-1.157,2.171A19.569,19.569,0,0,0,826.453,537.153Z" transform="translate(-646.18 -434.676)" />
        <path class="l" d="M789.844,572.607c.164,1.79-1.187,3.525-.793,5.279.083.375.245.73.3,1.1a4.248,4.248,0,0,1-1.052,2.9l-5.089,7.47a4.65,4.65,0,0,1-.727.9c-.975.876-2.434.775-3.711,1.034a6.386,6.386,0,0,0-2.486,1.1.162.162,0,0,0-.033.219,2.134,2.134,0,0,0,1.849.876c.134.177,0,.438-.184.561-.274.191-.657.241-.7.705a.771.771,0,0,0,.092.467,1.457,1.457,0,0,0,.892.618c1.753.539,3.665-.407,4.984-1.7s2.265-2.914,3.562-4.226c.716-.725,1.533-1.347,2.267-2.05a25.847,25.847,0,0,0,3.724-4.819,5.327,5.327,0,0,0,.806-1.641c.136-.583.074-1.2.232-1.777a6.536,6.536,0,0,1,1.22-1.993,6.586,6.586,0,0,0,1.387-4.3,4.116,4.116,0,0,0-2.513-3.564,2.239,2.239,0,0,0-1.409-.085,3.354,3.354,0,0,0-1.435,1.141l-.966,1.115a2.647,2.647,0,0,0-.561.857.887.887,0,0,0,.2.948" transform="translate(-608.612 -463.974)" />
        <path class="b" d="M838.4,549.563a2.8,2.8,0,0,0-1.88.583,2.7,2.7,0,0,0-.473.74,7.407,7.407,0,0,0-.938,2.953,13.941,13.941,0,0,0,.34,2.469,9.06,9.06,0,0,1-.219,2.072,14.407,14.407,0,0,0,2.679-1.03,8.868,8.868,0,0,1,1.566-.815,4.676,4.676,0,0,1,2.9.565c.042-.534-.357-1.461-.315-2a2.256,2.256,0,0,1,.118-.657,4.046,4.046,0,0,1,.4-.638,2.611,2.611,0,0,0-.234-3.067,4.211,4.211,0,0,0-2.734-1.159,11.846,11.846,0,0,0-1.91-.068" transform="translate(-654.594 -448.284)" />
        <path class="p" d="M271.8,356.243l-4.32-6.265a5.905,5.905,0,0,0-.364-1.912c-.283-.361-.061-1.168-.061-1.168s.3-.438.042-.484-.042-1.027-.042-1.027l-.02-1.571a5.511,5.511,0,0,0,.042-1.873.594.594,0,0,1,.02-.646s.241-.865,0-1.1a6.566,6.566,0,0,1-.123-2.64,4.011,4.011,0,0,0-.423-1.831c0-.16-1.595-1.733-1.595-1.875a3.87,3.87,0,0,0-1.617-.876c-.607-.151-.907-.283-.887-.364s-.949-.4-.949-.4a1.916,1.916,0,0,1-1.172-.484c-.324-.423-1.314-.545-1.338-.55l-.02-.083a.453.453,0,0,0-.018-.092,4.236,4.236,0,0,0,.219-.394l.057-.123a1.713,1.713,0,0,0,.992-.309,1.343,1.343,0,0,0,.484-.966,2.112,2.112,0,0,0-.237-1.073,1.8,1.8,0,0,1-.346-1.133c.039-.169.14-.318.193-.484a1.279,1.279,0,0,0-.145-.955c-.153-.291-.366-.55-.537-.832a3.286,3.286,0,0,1-.427-1.179,1.816,1.816,0,0,0-.156-.642,1.2,1.2,0,0,0-.355-.357,3.545,3.545,0,0,0-2.171-.657,10.623,10.623,0,0,1-1.643.1,5.888,5.888,0,0,1-.959-.25,2.475,2.475,0,0,0-2.048.105c-.589.388-.824,1.15-1.225,1.753a12.745,12.745,0,0,0-1.139,1.533v-.031a1.837,1.837,0,0,0-.151.405,2.887,2.887,0,0,0,.09,1.336.929.929,0,0,0,.326.6,1.884,1.884,0,0,0,.705.14l-.026.114a4.611,4.611,0,0,0,3.2,5.363c0,.042,0,.081,0,.123a2.943,2.943,0,0,1-.022.346h0a7.025,7.025,0,0,0-2.576-.136c-.545.283-1.614.5-1.777.657s-.565.042-.929.988-.4,1.912-.876,2.357-.705.745-.727,1.067.061.4-.12.5-.438.524-.364.686a.572.572,0,0,1-.219.6.67.67,0,0,0-.283.6s-.123.438-.405.545-.464.765-.464.765l-.916,1.051-1.814-2.007a.767.767,0,0,0-1.08-.055l-.892.8a1.765,1.765,0,0,0-.892.53,2.375,2.375,0,0,0-.462.688l-.486.438a1.242,1.242,0,0,0-.127,1.369l1.163,1.286v.011a2.059,2.059,0,0,0-1.124.458c-1.735,1.533-1.753,2.942-1.494,3.586a26.51,26.51,0,0,0,2.462,3.122A9.828,9.828,0,0,0,242.358,356h0l-.013.015a1.52,1.52,0,0,0-.107.125l-.031.039-.029.039-.033.048a.377.377,0,0,0-.024.039l-.035.057a.352.352,0,0,0-.022.039c-.015.026-.028.053-.042.079a.285.285,0,0,0-.013.026c-.018.035-.035.07-.05.11l-.018.039c-.011.026-.02.053-.031.081a.487.487,0,0,0-.018.053l-.026.079a.43.43,0,0,0-.018.057.48.48,0,0,1-.024.088c-.007.031-.011.035-.015.055s-.022.094-.031.145a.11.11,0,0,1-.011.057.524.524,0,0,0-.018.1.281.281,0,0,0,0,.074l-.013.1v.079a.41.41,0,0,1-.011.114c-.011.039,0,.046,0,.07V358a11.156,11.156,0,0,0,.1,2.7,1.314,1.314,0,0,0,1.071.8,1.336,1.336,0,0,0,.344-.018,19.672,19.672,0,0,1,4.381-.438,7.531,7.531,0,0,0,2.177-.177l.182-.035.125.4.4-.11.34.195.219.125c.4,1.349,2.015.889,2.015.889l.383.219,3.9.1a7.818,7.818,0,0,0,1.38.657,1.064,1.064,0,0,0,.195.044,8.665,8.665,0,0,0,1.1.02c.3,0,.528-.02.528-.02s-.039-1.058-.1-2.243a31.787,31.787,0,0,0,3.61-.3,4.441,4.441,0,0,0,3.268-3.268,9.548,9.548,0,0,1,.2,1.255,9.1,9.1,0,0,0,.324,1.1,3.652,3.652,0,0,0,.438.806c1.533-.524.6-1.314.283-1.652s.219-.624.219-.624.425-.283.383-.543-.061-.543,1.314-.524S271.8,356.243,271.8,356.243Zm-21.319-12.861a10.449,10.449,0,0,0,.381,1.682,2.19,2.19,0,0,1,.046.657c-.813-.066-1.66-.1-1.66-.1a.206.206,0,0,1,.044.1l-.129-.028-.184-.044,1.5-2.28Zm-2.97,4.723,1.409.219.118.018a4.6,4.6,0,0,0-.072.657c0,.022.031.046.077.074a1.732,1.732,0,0,0-.026.335,3.906,3.906,0,0,0,1.435.55c-.011.042-.02.081-.031.116h0c-.668-.35-1.717-.515-1.838-.775a27.127,27.127,0,0,0-3.7-1.509l-.355-.177.94.177.259-.026A13.957,13.957,0,0,0,247.506,348.1Z" transform="translate(-187.233 -270.29)" />
        <path class="q" d="M285.442,456.839s-.559,3.382-3.4,3.882-12.327.4-12.327.4-5.424-.782-7.385-5.363-3.222-6.405-1.533-6.484,10.747,3.067,11.266,3.1S285.943,445.413,285.442,456.839Z" transform="translate(-205.475 -370.009)" />
        <path class="m" d="M285.442,456.839s-.559,3.382-3.4,3.882-12.327.4-12.327.4-5.424-.782-7.385-5.363-3.222-6.405-1.533-6.484,10.747,3.067,11.266,3.1S285.943,445.413,285.442,456.839Z" transform="translate(-205.475 -370.009)" />
        <path class="n" d="M259.639,482.71a1.3,1.3,0,0,0,1.06.8,1.448,1.448,0,0,0,.344-.02,19.749,19.749,0,0,1,4.342-.438,7.533,7.533,0,0,0,2.156-.175c.453-.085.786-.167.786-.167s-.8-2.662-.9-2.74-3.6-2.191-3.6-2.191l-2.773-.2h0a1.465,1.465,0,0,0-.942.552,2.969,2.969,0,0,0-.561,1.888A11.038,11.038,0,0,0,259.639,482.71Z" transform="translate(-205.107 -392.115)" />
        <path class="m" d="M259.666,482.757a1.3,1.3,0,0,0,1.06.8,11.781,11.781,0,0,1-.754-1.1l.015-1.941a3.426,3.426,0,0,1,1.1-2.881h0s-1.461.1-1.5,2.44A11.8,11.8,0,0,0,259.666,482.757Z" transform="translate(-205.135 -392.162)" />
        <path class="r" d="M309.178,459.965l2.583-2.022,4.061-4-1.1-.05c-.164.105-.624.438-.642.837-.02.489-1.1.035-1.658.313s-3.3,3.79-3.781,3.766-.861-.243-1.062.1l-.013.022Z" transform="translate(-242.618 -373.615)" />
        <path class="r" d="M262.11,478.121c.092.044.186.088.28.127a17.781,17.781,0,0,1,4.563,2.922,19.035,19.035,0,0,0,2.6,1.687c.453-.085.786-.166.786-.166s-.8-2.662-.9-2.74-3.6-2.191-3.6-2.191l-2.773-.2h0A1.465,1.465,0,0,0,262.11,478.121Z" transform="translate(-207.117 -392.1)" />
        <path class="q" d="M236.841,439.508a26.6,26.6,0,0,0,2.44,3.1,9.449,9.449,0,0,0,3.343,2.629,17.32,17.32,0,0,1,4.561,2.922,21.063,21.063,0,0,0,2.78,1.794l.248.145.545.318.289.164s.67-.537,1.338-1.078,1.314-1.071,1.314-1.1.28-.74.219-.78-.169-.3-.423-.62a2.821,2.821,0,0,0-1.019-.841,2.9,2.9,0,0,1-1.314-1.378s-.088-.064-.219-.149a2.712,2.712,0,0,0-.9-.4c-.438-.055-1.262-.955-1.262-.955a2.449,2.449,0,0,1-.78-.819,29.637,29.637,0,0,0-3.6-2.769l7.523,4.832,1.8,1.157,2.583-2.02,4.061-4-1.341-.061c-1.972-.085-5.477-.219-5.915-.118a3.437,3.437,0,0,1-1.1.072,3.879,3.879,0,0,1-1.66-.3c-.662-.348-1.7-.513-1.823-.771a26.934,26.934,0,0,0-3.661-1.5s-4.819-2.561-6.543-1.041S236.581,438.863,236.841,439.508Z" transform="translate(-187.29 -359.221)" />
        <path class="s" d="M308.24,365.751l.62,2.061.8,4.642,2.942.2.841-1.4.85-1.411s.53-1.875.911-3.689c.335-1.606.556-3.165.191-3.334-.326-.149-.539-.69-.679-1.273-.018-.07-.033-.145-.046-.219a11.535,11.535,0,0,1-.2-1.492s-6.162-.32-5.3,2.221a4.055,4.055,0,0,1,.232,1.352,1.767,1.767,0,0,1-.022.344A2.881,2.881,0,0,1,308.24,365.751Z" transform="translate(-243.141 -300.153)" />
        <path class="t" d="M302.4,379.413l.219,3.5.5,2.981.561,1.382.5,7.553s4.819.559,6-.011a.5.5,0,0,0,.219-.164c1.417-2.14.953-8.34.953-8.34l.539-4-.359-2.077-.876-.092-.67-.072s-.151.186-.37.475c-.594.782-1.685,2.324-1.61,2.966.1.876-.121,1.781-.462,1.921s-.62.381-.679.14a1.076,1.076,0,0,1-.061-.64,5.2,5.2,0,0,0-.261-1.382,5.815,5.815,0,0,1-.5-1.739,2.063,2.063,0,0,0-.219-1.262c-.16-.14-.381-.28-.2-.92s-.789-1.886-.789-1.886Z" transform="translate(-238.581 -314.154)" />
        <path class="r" d="M331.459,380.137l.2,5.983,1.154.642a.519.519,0,0,0,.219-.167c1.417-2.14.953-8.34.953-8.34l.541-4-.361-2.077-.876-.092c.337-1.606.556-3.163.191-3.334-.326-.149-.539-.69-.677-1.271h0l-.624,4.232s.053.381.07.775a2.191,2.191,0,0,1-.05.745,2.486,2.486,0,0,0-.039,1,8.126,8.126,0,0,0-.629,2.951C331.413,378.7,331.459,380.137,331.459,380.137Z" transform="translate(-261.267 -306.134)" />
        <path class="n" d="M333.22,367s1.01.125,1.33.545a1.892,1.892,0,0,0,1.161.482s.96.32.94.4.28.2.876.361a4.046,4.046,0,0,1,1.6.876c0,.136,1.579,1.7,1.579,1.86a3.994,3.994,0,0,1,.421,1.82c-.059,1.06-.12,2.41.12,2.629s0,1.08,0,1.08a.592.592,0,0,0-.02.642,5.49,5.49,0,0,1-.042,1.86l.022,1.562s-.219.979.039,1.021-.039.48-.039.48-.219.8.059,1.161a5.93,5.93,0,0,1,.359,1.9l4.283,6.224s.061,1.141-1.3,1.122-1.343.261-1.3.519-.381.541-.381.541-.539.28-.219.62,1.24,1.122-.28,1.641a3.623,3.623,0,0,1-.438-.8,9.087,9.087,0,0,1-.32-1.08s-.14-1.522-.421-1.722-.241-1.161-.241-1.161.4-.78-.16-1.1-8.684-4.819-8.684-4.819l-.2-5.985s-.14-4.423.7-5.9a2.487,2.487,0,0,1,.039-1,5.183,5.183,0,0,0-.02-1.52Z" transform="translate(-261.665 -305.759)" />
        <path class="r" d="M287.747,377.176a6.953,6.953,0,0,0-2.552-.134c-.541.28-1.6.5-1.753.657s-.559.042-.92.981-.4,1.9-.861,2.342-.7.74-.719,1.06.059.4-.12.5-.438.521-.361.681,4.162,3.682,4.162,3.682a9.649,9.649,0,0,0,.381,1.68c.18.34-.2,5.023-.6,5.343s2.692.294,2.692.294.14-3.067.261-3.233a31.751,31.751,0,0,0-.081-3.441,19.556,19.556,0,0,1,.241-3.542,15.923,15.923,0,0,0,.219-3.2,6.586,6.586,0,0,1,.51-1.82C288.526,378.679,287.747,377.176,287.747,377.176Z" transform="translate(-221.437 -313.526)" />
        <path class="n" d="M287.474,376.9a6.993,6.993,0,0,0-2.552-.136c-.541.278-1.6.5-1.753.657s-.561.039-.92.981-.4,1.9-.861,2.34-.7.74-.721,1.06.061.4-.12.5-.438.519-.359.679,4.162,3.682,4.162,3.682a9.451,9.451,0,0,0,.381,1.68c.182.34-.2,5.023-.6,5.343s2.7.291,2.7.291.14-3.067.259-3.231a32.4,32.4,0,0,0-.079-3.444,19.533,19.533,0,0,1,.241-3.54,16.127,16.127,0,0,0,.23-3.2,6.586,6.586,0,0,1,.51-1.82C288.273,378.4,287.474,376.9,287.474,376.9Z" transform="translate(-221.223 -313.312)" />
        <path class="r" d="M312.246,362.034a4.055,4.055,0,0,1,.232,1.352,4.6,4.6,0,0,0,5.257-2.081,11.536,11.536,0,0,1-.2-1.492S311.385,359.491,312.246,362.034Z" transform="translate(-246.205 -300.136)" />
        <path class="s" d="M298.65,339.224a4.585,4.585,0,1,0,.1-.953A4.536,4.536,0,0,0,298.65,339.224Z" transform="translate(-235.652 -280.489)" />
        <path class="n" d="M270.905,404l-1.1.34a.567.567,0,0,1-.219.6.657.657,0,0,0-.278.6s-.121.438-.4.541-.46.76-.46.76l-.92,1.06s-.342.28-.28.421-.361.18-.361.18l.219,3.562,1.9.361,1.181-.12.96-.359.841-.5.379-.979,1.682-2.563Z" transform="translate(-210.85 -334.654)" />
        <path class="s" d="M250.647,418.016s-2.44-3.52-4.263-1.621.74,4.984,1.341,4.883,3.463-.261,3.463-.261Z" transform="translate(-194.333 -343.894)" />
        <rect class="n" width="12.778" height="9.921" rx="1.54" transform="translate(50.983 66.944) rotate(27.04)" />
        <rect class="b" width="10.741" height="8.094" transform="translate(51.494 68.206) rotate(27.04)" />
        <circle class="u" cx="0.175" cy="0.175" r="0.175" transform="translate(49.111 71.445)" />
        <circle class="u" cx="0.291" cy="0.291" r="0.291" transform="translate(59.35 76.634)" />
        <path class="s" d="M260.93,424.757c-.022,2.642,5.441,3.2,5.441,3.2l1.4.219.627.1.261-2.581s-.287-.044-.644-.127c-.53-.123-1.216-.335-1.358-.635C266.422,424.437,260.945,422.115,260.93,424.757Z" transform="translate(-206.195 -349.894)" />
        <path class="r" d="M299.11,338.284a.543.543,0,0,1,.335.149c.153.164.162.456.364.556a.421.421,0,0,0,.239.026c.532-.074.839-.675,1.352-.841a1.356,1.356,0,0,1,.894.077.7.7,0,0,1,.3.191c.171.219.05.548.129.815.11.372.554.519.938.567a1.643,1.643,0,0,1,1.073.366.973.973,0,0,1,.191.775.6.6,0,0,0,0,.287c.105.3.624.254.76.018.1-.173.07-.315.3-.364a.992.992,0,0,1,.488.085,3.624,3.624,0,0,0,1.268.195,4.583,4.583,0,1,0-8.631-2.9Z" transform="translate(-236.011 -280.502)" />
        <path class="n" d="M300.926,332.416a.607.607,0,0,1,0-.287.966.966,0,0,0-.191-.773,1.64,1.64,0,0,0-1.073-.368c-.386-.05-.828-.195-.938-.567-.079-.267.042-.594-.129-.813a.657.657,0,0,0-.3-.191,1.358,1.358,0,0,0-.894-.079c-.513.167-.819.767-1.352.841a.4.4,0,0,1-.239-.026c-.2-.1-.219-.392-.364-.556-.243-.256-.705-.09-1-.28a.922.922,0,0,1-.324-.594,2.878,2.878,0,0,1-.088-1.327c.173-.743.839-1.253,1.262-1.891.4-.591.62-1.341,1.214-1.733a2.428,2.428,0,0,1,2.031-.105,5.733,5.733,0,0,0,.951.25,10.7,10.7,0,0,0,1.628-.1,3.483,3.483,0,0,1,2.151.657,1.177,1.177,0,0,1,.35.355,1.842,1.842,0,0,1,.158.637,3.239,3.239,0,0,0,.423,1.17c.167.283.379.537.53.828a1.284,1.284,0,0,1,.145.949c-.053.164-.153.313-.193.482a1.816,1.816,0,0,0,.344,1.124,2.107,2.107,0,0,1,.234,1.067,1.336,1.336,0,0,1-.48.96,1.733,1.733,0,0,1-1.014.309,3.648,3.648,0,0,1-1.292-.2,1.019,1.019,0,0,0-.489-.085c-.234.048-.2.191-.3.364C301.551,332.67,301.034,332.716,300.926,332.416Z" transform="translate(-232.018 -271.786)" />
        <path class="r" d="M307.941,460.473l2.583-2.02,4.061-4-1.341-.061a.876.876,0,0,0-.283.548c-.02.489-1.1.033-1.658.313s-3.3,3.79-3.781,3.766-.861-.243-1.062.1l-.013.022a.565.565,0,0,1-.307.182Z" transform="translate(-241.501 -374.005)" />
        <path class="q" d="M290.61,455.437l1.3,4.142.2.657.618-.169,1.363-.375,6.064-1.665a5.273,5.273,0,0,0,2.191-.583,6.61,6.61,0,0,1,3.768-.821c.8.074,1.693-.272,2.434-1.639,0,0,1.68-4.962-2.561-6.383s-4.445.756-4.445.756l-.059.035c-.164.105-.624.438-.642.837-.02.488-1.1.035-1.658.313s-3.3,3.79-3.781,3.766-.861-.243-1.062.1l-.013.022c-.149.2-.594.252-.889.259a2.635,2.635,0,0,1-.276,0l-.039.011-.307.092Z" transform="translate(-229.373 -369.109)" />
        <path class="r" d="M292.14,435.509l.626.1.261-2.581s-.287-.044-.644-.127A13.207,13.207,0,0,1,292.14,435.509Z" transform="translate(-230.568 -357.223)" />
        <path class="r" d="M308.832,389.53s1.86-.541,1.4,4.743a14.773,14.773,0,0,1-3.9,8.624s-3.963,1.739-5.744,1.459-3.08-.34-3.08-.34a4.53,4.53,0,0,0-1.8-.48,8.326,8.326,0,0,1-3.141-.861c-.042-.2.521-3.141.28-3.36a18.544,18.544,0,0,1,3.082.315c.28.2.681.059.981,0a3.4,3.4,0,0,1,3.041-.156,1.846,1.846,0,0,0,.861-.1.861.861,0,0,1,.626-.039,1.721,1.721,0,0,0,.438-.219c.059-.079.541,0,.541,0a.219.219,0,0,0,.3-.14,1.313,1.313,0,0,1,.28-.438s.539-3.041,1.56-4.182a.657.657,0,0,0,.219-.581C304.689,393.451,306.431,388.888,308.832,389.53Z" transform="translate(-230.896 -323.305)" />
        <path class="n" d="M308.61,387.675s1.862-.539,1.4,4.743a14.762,14.762,0,0,1-3.9,8.624s-3.963,1.742-5.744,1.461-3.082-.346-3.082-.346a4.512,4.512,0,0,0-1.8-.48,8.341,8.341,0,0,1-3.141-.861c-.039-.2.519-3.141.28-3.363a18.564,18.564,0,0,1,3.082.318c.28.2.679.057.979,0a3.42,3.42,0,0,1,3.043-.158,1.826,1.826,0,0,0,.859-.1.877.877,0,0,1,.627-.042,1.817,1.817,0,0,0,.438-.219c.059-.081.539,0,.539,0a.219.219,0,0,0,.3-.14,1.315,1.315,0,0,1,.28-.438s.541-3.041,1.562-4.182a.657.657,0,0,0,.219-.581C304.47,391.6,306.209,387.042,308.61,387.675Z" transform="translate(-230.725 -321.858)" />
        <path class="r" d="M300.64,478.192l2.642,3.2.018-.018c.02-.061.28-.74.219-.782a3.72,3.72,0,0,0-1.439-1.461,2.73,2.73,0,0,1-1.133-1.03Z" transform="translate(-237.206 -392.521)" />
        <path class="r" d="M300.572,491.215l.289.164s.67-.537,1.338-1.078,1.314-1.071,1.314-1.1.28-.74.219-.78-.169-.3-.423-.62c-1.792-.5-.657.743-.5.8a1.824,1.824,0,0,0-2.3,1.875A2.938,2.938,0,0,0,300.572,491.215Z" transform="translate(-237.103 -400.008)" />
        <path class="n" d="M303.456,492.18l.381.219,3.862.1a7.737,7.737,0,0,0,1.367.657,1.284,1.284,0,0,0,.193.042,8.538,8.538,0,0,0,1.078.02c.3,0,.524-.02.524-.02s-.182-4.87-.32-5.382c-.066-.245-.39-.193-.71-.07a4.839,4.839,0,0,0-.692.35,12.472,12.472,0,0,0-1.9.3c-.261.14-1-.081-1.461,0s-1.282-.541-1.282-.541c-2.241-.74-.979.64-.819.7a1.824,1.824,0,0,0-2.3,1.875A1.549,1.549,0,0,0,303.456,492.18Z" transform="translate(-237.777 -399.968)" />
        <path class="v" d="M336.373,490.335a6.5,6.5,0,0,0,1.3,2.92c.3,0,.524-.02.524-.02s-.182-4.87-.32-5.382c-.066-.245-.39-.193-.71-.07A5.616,5.616,0,0,0,336.373,490.335Z" transform="translate(-265.11 -400.002)" />
        <path class="r" d="M336.373,490.335a6.5,6.5,0,0,0,1.3,2.92c.3,0,.524-.02.524-.02s-.182-4.87-.32-5.382c-.066-.245-.39-.193-.71-.07A5.616,5.616,0,0,0,336.373,490.335Z" transform="translate(-265.11 -400.002)" />
        <path class="m" d="M333.128,490.468a11.483,11.483,0,0,0,.688,2.725,1.284,1.284,0,0,0,.193.042,8.549,8.549,0,0,0,1.078.02c.3,0,.524-.02.524-.02s-.182-4.87-.32-5.382c-.066-.245-.39-.193-.71-.07a4.84,4.84,0,0,0-.692.35A2.692,2.692,0,0,0,333.128,490.468Z" transform="translate(-262.527 -400.002)" />
        <path class="r" d="M272.54,455.34a7.98,7.98,0,0,1,3.544,2.835Z" transform="translate(-215.262 -374.747)" />
        <g class="w" transform="translate(61.972 55.206)">
            <path d="M343.419,345.72a.066.066,0,0,1-.011.044,1.2,1.2,0,0,1-.068.166A1.537,1.537,0,0,1,343.419,345.72Z" transform="translate(-332.524 -344.346)" />
            <path d="M294.008,339.853a1.711,1.711,0,0,1,.149-.4.5.5,0,0,1-.031.1,2.91,2.91,0,0,0,.09,1.327.929.929,0,0,0,.322.594c.3.191.76.024,1,.28.153.164.162.456.364.556a.4.4,0,0,0,.239.026c.532-.074.839-.675,1.352-.841a1.345,1.345,0,0,1,.894.079.657.657,0,0,1,.3.191c.171.219.05.545.129.813.109.372.554.519.938.567a1.632,1.632,0,0,1,1.073.368.966.966,0,0,1,.191.773.607.607,0,0,0,0,.287c.105.3.624.254.76.018.1-.173.07-.315.3-.364a1.019,1.019,0,0,1,.489.085,3.648,3.648,0,0,0,1.292.2,1.733,1.733,0,0,0,1.014-.309,1.135,1.135,0,0,0,.311-.379,1.262,1.262,0,0,1-.438.679,1.733,1.733,0,0,1-1.014.309,3.648,3.648,0,0,1-1.292-.195,1.018,1.018,0,0,0-.488-.085c-.234.048-.2.191-.3.364-.138.237-.657.283-.762-.018a.635.635,0,0,1,0-.287.966.966,0,0,0-.191-.773,1.64,1.64,0,0,0-1.073-.368c-.386-.05-.828-.195-.938-.567-.079-.267.042-.594-.129-.813a.658.658,0,0,0-.3-.191,1.365,1.365,0,0,0-.9-.079c-.51.167-.819.767-1.352.841a.4.4,0,0,1-.239-.026c-.2-.1-.219-.392-.364-.556-.243-.256-.7-.09-1-.28a.922.922,0,0,1-.324-.594A2.879,2.879,0,0,1,294.008,339.853Z" transform="translate(-293.966 -339.45)" />
        </g>
        <path class="r" d="M339.409,411c-.368.5-.786.953-1.111,1.474a2.806,2.806,0,0,0-.486,1.753,4.557,4.557,0,0,0,.7-1.253,17.53,17.53,0,0,1,1.347-2.022c.085-.129.637-.876.359-.907C339.988,410.014,339.534,410.833,339.409,411Z" transform="translate(-266.232 -339.375)" />
        <path class="x" d="M345.155,589.61c.265.85.532,1.7.863,2.528a21.5,21.5,0,0,0,2.237,4.077,29.566,29.566,0,0,0,1.849,2.423,8.013,8.013,0,0,1,2.033,3.187,16.258,16.258,0,0,1,.182,2.191,2.681,2.681,0,0,0,.9,1.945,3.289,3.289,0,0,0,1.483.489c.372.059.837.079,1.03-.243a.936.936,0,0,0,.1-.425l.09-1.071c.018-.232.1-.528.333-.539s.348.3.545.438a.594.594,0,0,0,.8-.278,1.352,1.352,0,0,0,.022-.942,4.462,4.462,0,0,0-2.294-2.848,6.58,6.58,0,0,1-1.117-.581,3.819,3.819,0,0,1-.876-1.108A68.9,68.9,0,0,1,347.83,588.5a7.667,7.667,0,0,1-.567-2.042,13.4,13.4,0,0,1,.088-2.156,12.267,12.267,0,0,0-.355-3.84,3.066,3.066,0,0,0-.366-.933,2.082,2.082,0,0,0-2.848-.412,2.935,2.935,0,0,0-1.135,2.074,5.983,5.983,0,0,0,.567,2.158Q344.18,586.482,345.155,589.61Z" transform="translate(-270.006 -471.111)" />
        <path class="m" d="M345.155,589.61c.265.85.532,1.7.863,2.528a21.5,21.5,0,0,0,2.237,4.077,29.566,29.566,0,0,0,1.849,2.423,8.013,8.013,0,0,1,2.033,3.187,16.258,16.258,0,0,1,.182,2.191,2.681,2.681,0,0,0,.9,1.945,3.289,3.289,0,0,0,1.483.489c.372.059.837.079,1.03-.243a.936.936,0,0,0,.1-.425l.09-1.071c.018-.232.1-.528.333-.539s.348.3.545.438a.594.594,0,0,0,.8-.278,1.352,1.352,0,0,0,.022-.942,4.462,4.462,0,0,0-2.294-2.848,6.58,6.58,0,0,1-1.117-.581,3.819,3.819,0,0,1-.876-1.108A68.9,68.9,0,0,1,347.83,588.5a7.667,7.667,0,0,1-.567-2.042,13.4,13.4,0,0,1,.088-2.156,12.267,12.267,0,0,0-.355-3.84,3.066,3.066,0,0,0-.366-.933,2.082,2.082,0,0,0-2.848-.412,2.935,2.935,0,0,0-1.135,2.074,5.983,5.983,0,0,0,.567,2.158Q344.18,586.482,345.155,589.61Z" transform="translate(-270.006 -471.111)" />
        <path class="y" d="M294.277,769.387a2.919,2.919,0,0,0,1.236.149c.031-.342.491-.418.832-.4a.95.95,0,0,1,.475.109c.085.055.151.134.234.191a1.014,1.014,0,0,0,.484.125l1.779.149a5.352,5.352,0,0,0,2.361-.153.815.815,0,0,0,.379-.254c.2-.289,0-.7-.278-.914s-.637-.3-.918-.519c-.618-.471-.7-1.352-1.03-2.057a6.07,6.07,0,0,0-.852-1.233,4.734,4.734,0,0,0-.839-.861,4.43,4.43,0,0,0-2.372-.578,1.589,1.589,0,0,0-1.573.438c-.526.657-.315,1.972-.283,2.738A19.818,19.818,0,0,0,294.277,769.387Z" transform="translate(-231.9 -615.098)" />
        <path class="m" d="M294.277,769.387a2.919,2.919,0,0,0,1.236.149c.031-.342.491-.418.832-.4a.95.95,0,0,1,.475.109c.085.055.151.134.234.191a1.014,1.014,0,0,0,.484.125l1.779.149a5.352,5.352,0,0,0,2.361-.153.815.815,0,0,0,.379-.254c.2-.289,0-.7-.278-.914s-.637-.3-.918-.519c-.618-.471-.7-1.352-1.03-2.057a6.07,6.07,0,0,0-.852-1.233,4.734,4.734,0,0,0-.839-.861,4.43,4.43,0,0,0-2.372-.578,1.589,1.589,0,0,0-1.573.438c-.526.657-.315,1.972-.283,2.738A19.818,19.818,0,0,0,294.277,769.387Z" transform="translate(-231.9 -615.098)" />
        <path class="o" d="M284.26,628.7a1.237,1.237,0,0,0-.679,1.415,5.206,5.206,0,0,0,.716,1.549c.793,1.417,1.135,3.038,1.8,4.517.5,1.1,1.17,2.125,1.66,3.233a5.524,5.524,0,0,1,.5,3.536c-.145.572-.425,1.1-.611,1.658a9.2,9.2,0,0,0-.359,1.873,35.575,35.575,0,0,0-.129,6.5,1.942,1.942,0,0,0,.162.767c.112.219.3.438.219.657-.037.09-.118.156-.158.243-.114.245.114.506.322.681a.567.567,0,0,1-.348.269.824.824,0,0,1,.35.918c-.184.029-.195.311-.079.46s.3.241.383.41a.572.572,0,0,1-.315.719,1.5,1.5,0,0,1-.859.066,9.419,9.419,0,0,1-1.435-.315,1.038,1.038,0,0,1-.837-1.073,15.949,15.949,0,0,1-.1-2.688c.077-4.346,0-8.7-.188-13.041A14.863,14.863,0,0,0,283,635.989a26.56,26.56,0,0,0-1.246-2.41,10.111,10.111,0,0,1-1.617-5.794c.024-.219.1-.48.32-.515a.464.464,0,0,1,.248.042,11.129,11.129,0,0,1,1.3.719A4.919,4.919,0,0,0,284.26,628.7Z" transform="translate(-221.164 -509.012)" />
        <path class="m" d="M284.26,628.7a1.237,1.237,0,0,0-.679,1.415,5.206,5.206,0,0,0,.716,1.549c.793,1.417,1.135,3.038,1.8,4.517.5,1.1,1.17,2.125,1.66,3.233a5.524,5.524,0,0,1,.5,3.536c-.145.572-.425,1.1-.611,1.658a9.2,9.2,0,0,0-.359,1.873,35.575,35.575,0,0,0-.129,6.5,1.942,1.942,0,0,0,.162.767c.112.219.3.438.219.657-.037.09-.118.156-.158.243-.114.245.114.506.322.681a.567.567,0,0,1-.348.269.824.824,0,0,1,.35.918c-.184.029-.195.311-.079.46s.3.241.383.41a.572.572,0,0,1-.315.719,1.5,1.5,0,0,1-.859.066,9.419,9.419,0,0,1-1.435-.315,1.038,1.038,0,0,1-.837-1.073,15.949,15.949,0,0,1-.1-2.688c.077-4.346,0-8.7-.188-13.041A14.863,14.863,0,0,0,283,635.989a26.56,26.56,0,0,0-1.246-2.41,10.111,10.111,0,0,1-1.617-5.794c.024-.219.1-.48.32-.515a.464.464,0,0,1,.248.042,11.129,11.129,0,0,1,1.3.719A4.919,4.919,0,0,0,284.26,628.7Z" transform="translate(-221.164 -509.012)" />
        <path class="o" d="M249.606,608.628a1.42,1.42,0,0,0-1.974.223,10.5,10.5,0,0,0-1.025.9,5.463,5.463,0,0,0-1.218,5.406,10.648,10.648,0,0,0,1.494,2.653l1.183,1.7c1.805,2.591,3.61,5.183,5.5,7.713a.293.293,0,0,0,.206.278c.068.018.153.015.195.072a.206.206,0,0,1,.024.116,1.676,1.676,0,0,1-.105.548.261.261,0,0,0-.022.188c.061.142.32.061.4.195.055.088-.013.2-.085.276s-.162.158-.149.261.193.219.186.346c0,.075-.066.131-.112.191a.488.488,0,0,0,.059.622c.125,1.236-.548,2.41-.681,3.641-.219,1.945.668,3.844.775,5.8a1.5,1.5,0,0,0,.123.64c.182.337.657.541.633.924a3.708,3.708,0,0,1-.134.464,3.53,3.53,0,0,0,.072.657c0,.219-.191.488-.4.4q.232.775.414,1.564l4.14.342a3.675,3.675,0,0,0-.037-1.117c-.085-.4-.265-.773-.359-1.17a1.385,1.385,0,0,1,.162-1.172.458.458,0,0,1-.456-.375,1.82,1.82,0,0,1,.011-.644c.11-1.08-.344-2.145-.331-3.229a15.771,15.771,0,0,1,.464-2.515c.324-1.8-.013-3.744.786-5.385.484-.988,1.154-2.083.611-3.041-.267-.473-.74-.8-1.049-1.244a5.062,5.062,0,0,1-.561-1.356,45.8,45.8,0,0,0-2.574-5.678,5.913,5.913,0,0,1-.554-1.492,7.821,7.821,0,0,1-.07-1.378,20.307,20.307,0,0,0-.151-2.473,2.352,2.352,0,0,0-.3-1.023,2.289,2.289,0,0,0-.657-.589A43.4,43.4,0,0,0,249.606,608.628Z" transform="translate(-193.855 -494.223)" />
        <path class="y" d="M286.684,776.311a2.968,2.968,0,0,0,1.238.147c.031-.342.489-.418.83-.4a.95.95,0,0,1,.475.109c.085.055.151.136.237.191a.989.989,0,0,0,.484.125l1.777.149a5.333,5.333,0,0,0,2.364-.153.793.793,0,0,0,.377-.254c.2-.289,0-.7-.278-.911s-.637-.307-.916-.521c-.62-.471-.7-1.349-1.032-2.055a5.931,5.931,0,0,0-.85-1.236,4.732,4.732,0,0,0-.841-.859,4.407,4.407,0,0,0-2.37-.581,1.592,1.592,0,0,0-1.573.438c-.526.657-.315,1.971-.285,2.74A19.851,19.851,0,0,0,286.684,776.311Z" transform="translate(-225.971 -620.503)" />
        <circle class="x" cx="4.101" cy="4.101" r="4.101" transform="translate(74.963 99.033)" />
        <path class="x" d="M326.048,561.028a3.869,3.869,0,0,1-2.2.622,13.827,13.827,0,0,0-4.738,1.371,1.708,1.708,0,0,0-.548.377,1.547,1.547,0,0,0-.278.587,3.836,3.836,0,0,0-.156,1.426,4.064,4.064,0,0,0,.4,1.341,7.228,7.228,0,0,0,2.541,2.9,1.861,1.861,0,0,0,.644.309,3.611,3.611,0,0,0,1.593-.34,2.6,2.6,0,0,1,1.47.046c.438.149.918.421,1.352.239a1.386,1.386,0,0,0,.611-.7,23.7,23.7,0,0,0,1.119-2.44,9.4,9.4,0,0,1,.405-.955c.475-.9,1.3-1.6,1.706-2.543a.559.559,0,0,0,.039-.478.657.657,0,0,0-.3-.23,7.19,7.19,0,0,1-1.639-1.286c-.269-.259-.764-.957-1.152-1.019C326.475,560.183,326.344,560.774,326.048,561.028Z" transform="translate(-250.853 -456.676)" />
        <path class="b" d="M283.66,579.407a2.514,2.514,0,0,1-1.551.018,17.7,17.7,0,0,1-3.9-1.133,2.112,2.112,0,0,1-.957-.736,2.41,2.41,0,0,1-.267-.918l-.219-1.533a8.933,8.933,0,0,1,.07-1.564.453.453,0,0,0-.09-.339.37.37,0,0,0-.269-.085c-.616.011-.988.657-1.419,1.1a2.628,2.628,0,0,1-.876.587c-.394.162-.876.276-1.041.67-.066.164-.057.35-.127.515-.276.657-1.452.438-1.752,1.1-.085.184-.079.414-.219.559s-.4.142-.62.177c-.857.14-1.271,1.128-2,1.595a16.188,16.188,0,0,1-2.072.692,7.868,7.868,0,0,1-1.084.55,5.122,5.122,0,0,1-1.249.064.326.326,0,0,0-.248.081.331.331,0,0,0-.042.272,7.549,7.549,0,0,0,4.664,5.844,1.563,1.563,0,0,1,.4.193c.372.278.438.876.861,1.073a.876.876,0,0,0,.9-.193,8.043,8.043,0,0,0,.657-.714,2.574,2.574,0,0,1,1.444-.76,3.173,3.173,0,0,0,1.487-.335,4.614,4.614,0,0,0,.469-.5,2.944,2.944,0,0,1,1.062-.635,10.859,10.859,0,0,1,3.38-.743,11.789,11.789,0,0,0,3.211-.311,1.936,1.936,0,0,0,.716-.405,2.154,2.154,0,0,0,.478-.83A6.353,6.353,0,0,0,283.66,579.407Z" transform="translate(-208.368 -466.721)" />
        <path class="b" d="M322.509,573.93c.3-.028.607,0,.911,0,.357,0,.71-.088,1.067-.09a2.653,2.653,0,0,1,2.5,1.9.493.493,0,0,1,.015.269.191.191,0,0,1-.206.14,4.54,4.54,0,0,0-.462-.922,2.591,2.591,0,0,0-1.376-.959,3.562,3.562,0,0,0-1.691-.061c-.234.044-.462.105-.69.169l-1.1.3c-.2.055-.405.11-.6.182-.151.057-.41.265-.559.274-.2,0-.039-.175.05-.294a1.456,1.456,0,0,1,.716-.521A6.2,6.2,0,0,1,322.509,573.93Z" transform="translate(-252.504 -467.288)" />
        <path class="x" d="M334.272,591.7c.265.85.53,1.7.863,2.528a21.383,21.383,0,0,0,2.237,4.077,29.58,29.58,0,0,0,1.849,2.423,8.193,8.193,0,0,1,2.033,3.185,16.325,16.325,0,0,1,.182,2.191,2.691,2.691,0,0,0,.9,1.945,3.359,3.359,0,0,0,1.485.489c.37.059.835.079,1.03-.243a.973.973,0,0,0,.1-.425l.088-1.071c.02-.232.1-.528.333-.539s.35.3.548.438a.594.594,0,0,0,.8-.278,1.362,1.362,0,0,0,.022-.942,4.475,4.475,0,0,0-2.294-2.848,6.683,6.683,0,0,1-1.119-.581,3.792,3.792,0,0,1-.876-1.111,68.3,68.3,0,0,1-5.512-10.355,7.724,7.724,0,0,1-.57-2.039,13.406,13.406,0,0,1,.09-2.156,12.267,12.267,0,0,0-.355-3.84,3.021,3.021,0,0,0-.368-.933,2.079,2.079,0,0,0-2.848-.412,2.938,2.938,0,0,0-1.137,2.075,6.029,6.029,0,0,0,.567,2.158Q333.295,588.571,334.272,591.7Z" transform="translate(-261.502 -472.74)" />
        <path class="o" d="M347.556,532.505c.033-.342-.274-.657-.622-.876a8.228,8.228,0,0,1-1.054-.644c-.311-.269-.482-.62-.793-.889a3.525,3.525,0,0,0-1.183-.589,9.007,9.007,0,0,0-2.83-.506,4.912,4.912,0,0,0-2.705.716,1.6,1.6,0,0,0-.46.438,1.881,1.881,0,0,0-.219.679,13.4,13.4,0,0,1-.708,2.149,5,5,0,0,1-1.345,2.173c-.767.637-1.939,1.005-2.445,1.777a.569.569,0,0,0-.112.5c.072.2.3.329.519.451a7.035,7.035,0,0,1,2.87,2.747,3.188,3.188,0,0,1-.25,3.428c-.289.377-.688.824-.405,1.2.438.576,1.9.245,2.245.854a1.243,1.243,0,0,1,.044.629c0,.64.616,1.207,1.363,1.5a7.672,7.672,0,0,0,2.453.4,2.143,2.143,0,0,0,.061-1.588.64.64,0,0,1-.064-.361.876.876,0,0,1,.283-.346,2.508,2.508,0,0,0,.169-3.108,17.781,17.781,0,0,1-1.693-2.995,1.544,1.544,0,0,1,.263-1.56,5.27,5.27,0,0,1,.773-.563,2.922,2.922,0,0,0,1.082-1.358c.252-.7.219-1.533.951-2,.7-.438,1.691-.311,2.469-.611A2.642,2.642,0,0,0,347.556,532.505Z" transform="translate(-262.527 -432.271)" />
        <path class="z" d="M561.547,651.843c-3.341-1.382-4.322-2.381-4.322-4.381,0-1.533.675-3.3,3.632-3.3a8.338,8.338,0,0,1,4.618,1.314l.962-2.543a10.2,10.2,0,0,0-4.992-1.345V637.86H559.5v3.877c-3.533.576-5.579,2.995-5.579,6.182,0,3.341,1.972,5.109,5.9,6.644,2.843,1.159,4.331,2.464,4.331,4.576,0,2.191-1.842,3.763-4.57,3.763a11.852,11.852,0,0,1-5.967-1.652l-.922,2.572a11.183,11.183,0,0,0,5.875,1.691v3.877h3.306V665.4c3.943-.657,6.066-3.505,6.066-6.528C567.937,655.453,565.5,653.455,561.547,651.843Z" transform="translate(-434.042 -517.284)" />
        <path class="b" d="M558.605,665.415v-3.877a11.183,11.183,0,0,1-5.875-1.691l.922-2.572a11.852,11.852,0,0,0,5.967,1.652c2.727,0,4.561-1.573,4.561-3.763,0-2.112-1.5-3.417-4.34-4.57-3.917-1.533-5.9-3.3-5.9-6.644,0-3.187,2.046-5.606,5.579-6.182V633.89h1.943v3.724a10.221,10.221,0,0,1,4.992,1.345l-.962,2.532a8.339,8.339,0,0,0-4.618-1.314c-2.957,0-3.632,1.768-3.632,3.3,0,2,.981,2.995,4.322,4.381,3.956,1.612,6.39,3.61,6.39,7.028,0,3.034-2.112,5.875-6.066,6.528v4Z" transform="translate(-434.073 -514.184)" />
    </g>
</svg>